<svg width="40" height="16" viewBox="0 0 40 16" fill="none" xmlns="http://www.w3.org/2000/svg">
<path d="M6.19336 10.3208C6.19336 10.5142 6.15527 10.6821 6.0791 10.8247C6.00293 10.9653 5.89746 11.0806 5.7627 11.1704C5.62793 11.2603 5.47168 11.3237 5.29395 11.3608V11.3813C5.63379 11.4243 5.88965 11.5327 6.06152 11.7065C6.23535 11.8804 6.32227 12.1099 6.32227 12.395C6.32227 12.6431 6.26367 12.8638 6.14648 13.0571C6.0293 13.2505 5.84863 13.4019 5.60449 13.5112C5.3623 13.6206 5.05078 13.6753 4.66992 13.6753C4.44141 13.6753 4.22949 13.6567 4.03418 13.6196C3.83887 13.5825 3.65332 13.5229 3.47754 13.4409V12.9048C3.65527 12.9946 3.84766 13.0649 4.05469 13.1157C4.26172 13.1646 4.46094 13.189 4.65234 13.189C5.02539 13.189 5.29297 13.1167 5.45508 12.9722C5.61914 12.8276 5.70117 12.6284 5.70117 12.3745C5.70117 12.2065 5.65723 12.0698 5.56934 11.9644C5.48145 11.8569 5.35059 11.7778 5.17676 11.7271C5.00488 11.6763 4.79004 11.6509 4.53223 11.6509H4.13086V11.1646H4.53809C4.77832 11.1646 4.97559 11.1333 5.12988 11.0708C5.28613 11.0063 5.40234 10.9165 5.47852 10.8013C5.55469 10.686 5.59277 10.5513 5.59277 10.397C5.59277 10.1958 5.52637 10.0405 5.39355 9.93115C5.2627 9.81982 5.07715 9.76416 4.83691 9.76416C4.68848 9.76416 4.55273 9.78076 4.42969 9.81396C4.30859 9.84521 4.19531 9.88721 4.08984 9.93994C3.98633 9.99268 3.88574 10.0522 3.78809 10.1187L3.49805 9.71143C3.65625 9.59033 3.84766 9.48682 4.07227 9.40088C4.29883 9.31494 4.55762 9.27197 4.84863 9.27197C5.28809 9.27197 5.62207 9.36865 5.85059 9.56201C6.0791 9.75537 6.19336 10.0083 6.19336 10.3208ZM7.06641 13.2827C7.06641 13.1343 7.10352 13.0298 7.17773 12.9692C7.25391 12.9067 7.3457 12.8755 7.45312 12.8755C7.5625 12.8755 7.65527 12.9067 7.73145 12.9692C7.80762 13.0298 7.8457 13.1343 7.8457 13.2827C7.8457 13.4272 7.80762 13.5327 7.73145 13.5991C7.65527 13.6655 7.5625 13.6987 7.45312 13.6987C7.3457 13.6987 7.25391 13.6655 7.17773 13.5991C7.10352 13.5327 7.06641 13.4272 7.06641 13.2827ZM11.4082 11.4692C11.4082 11.8169 11.3818 12.1274 11.3291 12.4009C11.2764 12.6743 11.1924 12.9058 11.0771 13.0952C10.9639 13.2847 10.8154 13.4292 10.6318 13.5288C10.4502 13.6265 10.2305 13.6753 9.97266 13.6753C9.64844 13.6753 9.38086 13.5884 9.16992 13.4146C8.95898 13.2407 8.80176 12.9897 8.69824 12.6616C8.59473 12.3315 8.54297 11.9341 8.54297 11.4692C8.54297 11.0122 8.58984 10.6196 8.68359 10.2915C8.77734 9.96143 8.92871 9.7085 9.1377 9.53271C9.34863 9.35498 9.62695 9.26611 9.97266 9.26611C10.3008 9.26611 10.5703 9.354 10.7812 9.52979C10.9941 9.70361 11.1514 9.95557 11.2529 10.2856C11.3564 10.6138 11.4082 11.0083 11.4082 11.4692ZM9.13477 11.4692C9.13477 11.8501 9.16211 12.1675 9.2168 12.4214C9.27148 12.6753 9.36035 12.8657 9.4834 12.9927C9.60645 13.1177 9.76953 13.1802 9.97266 13.1802C10.1758 13.1802 10.3389 13.1177 10.4619 12.9927C10.5869 12.8677 10.6768 12.6782 10.7314 12.4243C10.7861 12.1704 10.8135 11.8521 10.8135 11.4692C10.8135 11.0942 10.7861 10.7808 10.7314 10.5288C10.6768 10.2749 10.5879 10.0845 10.4648 9.95752C10.3438 9.82861 10.1797 9.76416 9.97266 9.76416C9.76562 9.76416 9.60059 9.82861 9.47754 9.95752C9.35645 10.0845 9.26855 10.2749 9.21387 10.5288C9.16113 10.7808 9.13477 11.0942 9.13477 11.4692ZM15.0088 9.3335C15.3701 9.3335 15.668 9.37842 15.9023 9.46826C16.1387 9.55615 16.3145 9.69092 16.4297 9.87256C16.5449 10.0522 16.6025 10.2808 16.6025 10.5581C16.6025 10.7769 16.5625 10.9614 16.4824 11.1118C16.4023 11.2622 16.2969 11.3853 16.166 11.481C16.0371 11.5767 15.8984 11.6519 15.75 11.7065L16.9482 13.6167H16.2598L15.2168 11.8647H14.4287V13.6167H13.8281V9.3335H15.0088ZM14.9707 9.84326H14.4287V11.3638H15.0117C15.3496 11.3638 15.5967 11.2983 15.7529 11.1675C15.9092 11.0347 15.9873 10.8394 15.9873 10.5815C15.9873 10.314 15.9043 10.1245 15.7383 10.0132C15.5723 9.8999 15.3164 9.84326 14.9707 9.84326ZM18.7588 10.3325C19.1572 10.3325 19.4551 10.4214 19.6523 10.5991C19.8496 10.7749 19.9482 11.0532 19.9482 11.4341V13.6167H19.5264L19.4121 13.1479H19.3887C19.2988 13.2651 19.2051 13.3628 19.1074 13.4409C19.0098 13.519 18.8965 13.5776 18.7676 13.6167C18.6406 13.6558 18.4854 13.6753 18.3018 13.6753C18.1064 13.6753 17.9326 13.6401 17.7803 13.5698C17.6279 13.4995 17.5078 13.394 17.4199 13.2534C17.334 13.1108 17.291 12.9302 17.291 12.7114C17.291 12.3833 17.417 12.1343 17.6689 11.9644C17.9209 11.7944 18.3027 11.7017 18.8145 11.686L19.3711 11.6626V11.481C19.3711 11.229 19.3145 11.0513 19.2012 10.9478C19.0898 10.8442 18.9336 10.7925 18.7324 10.7925C18.5664 10.7925 18.4072 10.8169 18.2549 10.8657C18.1025 10.9126 17.9561 10.9692 17.8154 11.0356L17.6279 10.6079C17.7803 10.5298 17.9531 10.4644 18.1465 10.4116C18.3418 10.3589 18.5459 10.3325 18.7588 10.3325ZM19.3652 12.0493L18.9141 12.0698C18.541 12.0835 18.2783 12.146 18.126 12.2573C17.9756 12.3667 17.9004 12.52 17.9004 12.7173C17.9004 12.8892 17.9521 13.0151 18.0557 13.0952C18.1592 13.1753 18.2959 13.2153 18.4658 13.2153C18.7275 13.2153 18.9424 13.1421 19.1104 12.9956C19.2803 12.8472 19.3652 12.6284 19.3652 12.3394V12.0493ZM22.0576 13.1978C22.1416 13.1978 22.2266 13.1909 22.3125 13.1772C22.3984 13.1616 22.4727 13.1421 22.5352 13.1187V13.5698C22.4688 13.5991 22.3799 13.6235 22.2686 13.6431C22.1592 13.6646 22.0469 13.6753 21.9316 13.6753C21.7559 13.6753 21.5967 13.645 21.4541 13.5845C21.3115 13.5239 21.1973 13.4204 21.1113 13.2739C21.0273 13.1274 20.9854 12.9243 20.9854 12.6646V10.8423H20.5371V10.5698L21.0059 10.353L21.2139 9.65576H21.5771V10.3882H22.5117V10.8423H21.5771V12.6558C21.5771 12.8374 21.6201 12.9731 21.7061 13.063C21.7939 13.1528 21.9111 13.1978 22.0576 13.1978ZM23.7773 10.3882V13.6167H23.1885V10.3882H23.7773ZM23.4873 9.1665C23.5811 9.1665 23.6611 9.19385 23.7275 9.24854C23.7959 9.30322 23.8301 9.39209 23.8301 9.51514C23.8301 9.63818 23.7959 9.72803 23.7275 9.78467C23.6611 9.83936 23.5811 9.8667 23.4873 9.8667C23.3916 9.8667 23.3105 9.83936 23.2441 9.78467C23.1797 9.72803 23.1475 9.63818 23.1475 9.51514C23.1475 9.39209 23.1797 9.30322 23.2441 9.24854C23.3105 9.19385 23.3916 9.1665 23.4873 9.1665ZM26.3877 10.3296C26.7607 10.3296 27.0469 10.4233 27.2461 10.6108C27.4473 10.7983 27.5479 11.0991 27.5479 11.5132V13.6167H26.9648V11.5923C26.9648 11.3345 26.9082 11.1411 26.7949 11.0122C26.6816 10.8813 26.5078 10.8159 26.2734 10.8159C25.9395 10.8159 25.7051 10.9146 25.5703 11.1118C25.4375 11.3091 25.3711 11.5952 25.3711 11.9702V13.6167H24.7822V10.3882H25.248L25.333 10.8423H25.3652C25.4336 10.729 25.5205 10.6343 25.626 10.5581C25.7314 10.4819 25.8486 10.4253 25.9775 10.3882C26.1084 10.3491 26.2451 10.3296 26.3877 10.3296ZM29.4463 15.0581C29.0146 15.0581 28.6826 14.979 28.4502 14.8208C28.2197 14.6626 28.1045 14.4419 28.1045 14.1587C28.1045 13.9575 28.168 13.7866 28.2949 13.646C28.4219 13.5073 28.5996 13.4136 28.8281 13.3647C28.7422 13.3257 28.668 13.2661 28.6055 13.186C28.5449 13.104 28.5146 13.0122 28.5146 12.9106C28.5146 12.7915 28.5479 12.689 28.6143 12.603C28.6826 12.5151 28.7842 12.4302 28.9189 12.3481C28.749 12.2778 28.6123 12.1616 28.5088 11.9995C28.4053 11.8354 28.3535 11.644 28.3535 11.4253C28.3535 11.1929 28.4023 10.9946 28.5 10.8306C28.5996 10.6665 28.7422 10.5415 28.9277 10.4556C29.1133 10.3696 29.3389 10.3267 29.6045 10.3267C29.6631 10.3267 29.7236 10.3296 29.7861 10.3354C29.8486 10.3394 29.9082 10.3462 29.9648 10.356C30.0215 10.3657 30.0674 10.3755 30.1025 10.3853H31.2158V10.7339L30.6416 10.8218C30.6982 10.896 30.7441 10.9839 30.7793 11.0854C30.8145 11.187 30.832 11.2983 30.832 11.4194C30.832 11.7476 30.7197 12.0073 30.4951 12.1987C30.2725 12.3882 29.9639 12.4829 29.5693 12.4829C29.4775 12.481 29.3848 12.4731 29.291 12.4595C29.207 12.5083 29.1436 12.562 29.1006 12.6206C29.0576 12.6772 29.0361 12.7427 29.0361 12.8169C29.0361 12.8735 29.0547 12.9194 29.0918 12.9546C29.1309 12.9897 29.1865 13.0161 29.2588 13.0337C29.3311 13.0493 29.4189 13.0571 29.5225 13.0571H30.085C30.4365 13.0571 30.7061 13.1313 30.8936 13.2798C31.0811 13.4282 31.1748 13.645 31.1748 13.9302C31.1748 14.2915 31.0264 14.5698 30.7295 14.7651C30.4326 14.9604 30.0049 15.0581 29.4463 15.0581ZM29.4668 14.6274C29.7188 14.6274 29.9287 14.6021 30.0967 14.5513C30.2666 14.5005 30.3945 14.4282 30.4805 14.3345C30.5664 14.2407 30.6094 14.1294 30.6094 14.0005C30.6094 13.8833 30.5811 13.7935 30.5244 13.731C30.4697 13.6704 30.3877 13.6294 30.2783 13.6079C30.1689 13.5864 30.0342 13.5757 29.874 13.5757H29.3408C29.2041 13.5757 29.085 13.5972 28.9834 13.6401C28.8818 13.6831 28.8027 13.7446 28.7461 13.8247C28.6895 13.9067 28.6611 14.0073 28.6611 14.1265C28.6611 14.2886 28.7305 14.4126 28.8691 14.4985C29.0098 14.5845 29.209 14.6274 29.4668 14.6274ZM29.5957 12.0815C29.8125 12.0815 29.9746 12.0249 30.082 11.9116C30.1895 11.7964 30.2432 11.6323 30.2432 11.4194C30.2432 11.1909 30.1885 11.019 30.0791 10.9038C29.9697 10.7886 29.8076 10.731 29.5928 10.731C29.3838 10.731 29.2236 10.7905 29.1123 10.9097C29.0029 11.0269 28.9482 11.1987 28.9482 11.4253C28.9482 11.6343 29.0039 11.7964 29.1152 11.9116C29.2266 12.0249 29.3867 12.0815 29.5957 12.0815ZM33.9551 12.7144C33.9551 12.9233 33.9033 13.1001 33.7998 13.2446C33.6982 13.3872 33.5498 13.4946 33.3545 13.5669C33.1592 13.6392 32.9248 13.6753 32.6514 13.6753C32.4248 13.6753 32.2295 13.6577 32.0654 13.6226C31.9014 13.5894 31.7529 13.5405 31.6201 13.4761V12.9546C31.7627 13.0229 31.9277 13.0835 32.1152 13.1362C32.3027 13.189 32.4863 13.2153 32.666 13.2153C32.918 13.2153 33.0996 13.1753 33.2109 13.0952C33.3242 13.0151 33.3809 12.9067 33.3809 12.77C33.3809 12.6899 33.3584 12.6196 33.3135 12.5591C33.2686 12.4966 33.1895 12.4351 33.0762 12.3745C32.9648 12.312 32.8047 12.2407 32.5957 12.1606C32.3906 12.0806 32.2148 12.0005 32.0684 11.9204C31.9238 11.8403 31.8135 11.7437 31.7373 11.6304C31.6611 11.5171 31.623 11.3706 31.623 11.1909C31.623 10.9116 31.7344 10.6987 31.957 10.5522C32.1816 10.4038 32.4775 10.3296 32.8447 10.3296C33.04 10.3296 33.2236 10.3491 33.3955 10.3882C33.5693 10.4272 33.7354 10.4819 33.8936 10.5522L33.7031 11.0063C33.5625 10.9458 33.418 10.896 33.2695 10.8569C33.1211 10.8159 32.9697 10.7954 32.8154 10.7954C32.6143 10.7954 32.46 10.8276 32.3525 10.8921C32.2471 10.9565 32.1943 11.0454 32.1943 11.1587C32.1943 11.2466 32.2188 11.3198 32.2676 11.3784C32.3184 11.437 32.4023 11.4946 32.5195 11.5513C32.6367 11.606 32.7949 11.6714 32.9941 11.7476C33.1914 11.8218 33.3613 11.8989 33.5039 11.979C33.6484 12.0591 33.7598 12.1567 33.8379 12.272C33.916 12.3872 33.9551 12.5347 33.9551 12.7144Z" fill="black"/>
<path d="M1.17788 5.9886L1.67829 3.82531L0 2.37028L2.21719 2.17781L3.07942 0.137695L3.94166 2.17781L6.15885 2.37028L4.48056 3.82531L4.98097 5.9886L3.07942 4.84152L1.17788 5.9886Z" fill="url(#paint0_linear_2636_24624)"/>
<path d="M9.49038 5.9886L9.99079 3.82531L8.3125 2.37028L10.5297 2.17781L11.3919 0.137695L12.2542 2.17781L14.4713 2.37028L12.7931 3.82531L13.2935 5.9886L11.3919 4.84152L9.49038 5.9886Z" fill="url(#paint1_linear_2636_24624)"/>
<path d="M17.8048 5.9886L18.3052 3.82531L16.627 2.37028L18.8441 2.17781L19.7064 0.137695L20.5686 2.17781L22.7858 2.37028L21.1075 3.82531L21.6079 5.9886L19.7064 4.84152L17.8048 5.9886Z" fill="url(#paint2_linear_2636_24624)"/>
<path d="M28.3936 2.09863L28.4287 2.18164L28.5186 2.18945L30.3818 2.35059L28.9717 3.57422L28.9043 3.63379L28.9238 3.72168L29.3447 5.53906L27.7471 4.5752L27.6689 4.52832L27.5918 4.5752L25.9932 5.53906L26.4141 3.72168L26.4346 3.63379L26.3662 3.57422L24.9551 2.35059L26.8203 2.18945L26.9102 2.18164L26.9453 2.09863L27.6689 0.384766L28.3936 2.09863Z" stroke="black" stroke-width="0.3"/>
<path d="M36.7061 2.09863L36.7412 2.18164L36.8311 2.18945L38.6943 2.35059L37.2842 3.57422L37.2168 3.63379L37.2363 3.72168L37.6572 5.53906L36.0596 4.5752L35.9814 4.52832L35.9043 4.5752L34.3057 5.53906L34.7266 3.72168L34.7471 3.63379L34.6787 3.57422L33.2676 2.35059L35.1328 2.18945L35.2227 2.18164L35.2578 2.09863L35.9814 0.384766L36.7061 2.09863Z" stroke="black" stroke-width="0.3"/>
<defs>
<linearGradient id="paint0_linear_2636_24624" x1="3.07922" y1="1.20861" x2="3.07922" y2="10.0005" gradientUnits="userSpaceOnUse">
<stop stop-color="#23CEA7"/>
<stop offset="0.60581" stop-color="#C0E421"/>
</linearGradient>
<linearGradient id="paint1_linear_2636_24624" x1="11.3917" y1="1.20861" x2="11.3917" y2="10.0005" gradientUnits="userSpaceOnUse">
<stop stop-color="#23CEA7"/>
<stop offset="0.60581" stop-color="#C0E421"/>
</linearGradient>
<linearGradient id="paint2_linear_2636_24624" x1="19.7062" y1="1.20861" x2="19.7062" y2="10.0005" gradientUnits="userSpaceOnUse">
<stop stop-color="#23CEA7"/>
<stop offset="0.60581" stop-color="#C0E421"/>
</linearGradient>
</defs>
</svg>
