<svg width="12" height="12" viewBox="0 0 12 12" fill="none" xmlns="http://www.w3.org/2000/svg">
<path d="M7.78125 7.8906C7.78125 8.50623 8.26629 9.25244 8.86326 9.25244C9.46023 9.25244 9.94527 8.50623 9.94527 7.8906C9.94527 7.29363 9.46023 6.80859 8.86326 6.80859C8.26629 6.82725 7.78125 7.31229 7.78125 7.8906ZM8.8446 7.20036C9.23637 7.20036 9.55351 7.5175 9.55351 7.90926C9.55351 8.31968 9.19906 8.89799 8.8446 8.89799C8.49015 8.89799 8.1357 8.33833 8.1357 7.90926C8.15436 7.5175 8.4715 7.20036 8.8446 7.20036Z" fill="#309884"/>
<path d="M8.86128 5.7645C8.73069 5.7645 8.60011 5.78315 8.46952 5.80181V0.186553C8.46952 0.0746213 8.3949 0 8.28297 0H0.186553C0.0932766 0 0 0.0746213 0 0.186553V10.7082C0 10.8201 0.0746213 10.8947 0.186553 10.8947H6.52937C7.08903 11.5476 7.92851 11.9394 8.84263 11.9394C9.66346 11.9394 10.4656 11.6223 11.0999 10.9693C11.6409 10.391 11.9394 9.6448 11.9394 8.86128C11.9394 7.14499 10.5589 5.7645 8.86128 5.7645ZM11.5663 8.86128C11.5663 9.40229 11.4171 9.90598 11.1186 10.3537L11.0999 10.2045C11.0813 9.9806 10.9507 9.77539 10.7641 9.66346C10.447 9.49556 10.1298 9.34632 9.79405 9.25304C9.71943 9.23439 9.62615 9.2717 9.58884 9.34632L8.97321 10.447H8.73069L8.11507 9.36497C8.07776 9.29035 7.98448 9.25304 7.90986 9.2717C7.59272 9.36497 7.25692 9.49556 6.93978 9.66346C6.73457 9.77539 6.60399 9.9806 6.58533 10.2045L6.56668 10.3351C6.28685 9.88732 6.11895 9.38363 6.11895 8.84263C6.11895 7.36885 7.31289 6.1376 8.82397 6.1376C10.3537 6.1376 11.5663 7.3502 11.5663 8.86128ZM0.373107 0.373107H8.07776V5.87643C7.14499 6.11895 6.39878 6.77188 6.02567 7.63003H3.39527C3.28334 7.63003 3.20872 7.70465 3.20872 7.81658C3.20872 7.92851 3.28334 8.00314 3.39527 8.00314H5.89508C5.82046 8.28297 5.7645 8.5628 5.7645 8.86128C5.7645 9.45825 5.93239 10.0366 6.24954 10.5216H0.373107V0.373107ZM6.92113 10.7641L6.95844 10.2231C6.95844 10.1298 7.03306 10.0366 7.10768 9.9806C7.3502 9.85001 7.61137 9.73808 7.85389 9.66346L8.45086 10.7268C8.48817 10.7828 8.54414 10.8201 8.61876 10.8201H9.08514C9.15977 10.8201 9.21573 10.7828 9.25304 10.7268L9.85001 9.66346C10.0925 9.73808 10.3537 9.85001 10.5962 9.9806C10.6895 10.0366 10.7455 10.1298 10.7455 10.2231L10.7828 10.7641C9.66346 11.8648 7.96583 11.7902 6.92113 10.7641Z" fill="#309884"/>
<path d="M3.4014 1.84625H7.09515C7.20708 1.84625 7.28171 1.77163 7.28171 1.6597C7.28171 1.54777 7.20708 1.47314 7.09515 1.47314H3.4014C3.28947 1.47314 3.21484 1.54777 3.21484 1.6597C3.21484 1.77163 3.28947 1.84625 3.4014 1.84625Z" fill="#309884"/>
<path d="M1.82872 1.02539C1.45561 1.02539 1.17578 1.30522 1.17578 1.65967C1.17578 2.01412 1.47427 2.31261 1.82872 2.31261C2.18317 2.31261 2.48165 2.01412 2.48165 1.65967C2.48165 1.30522 2.18317 1.02539 1.82872 1.02539ZM1.82872 1.9395C1.67948 1.9395 1.54889 1.80891 1.54889 1.65967C1.54889 1.51043 1.67948 1.37984 1.82872 1.37984C1.97796 1.37984 2.10855 1.51043 2.10855 1.65967C2.08989 1.82757 1.97796 1.9395 1.82872 1.9395Z" fill="#309884"/>
<path d="M3.4014 3.89801H7.09515C7.20708 3.89801 7.28171 3.82339 7.28171 3.71146C7.28171 3.59952 7.20708 3.5249 7.09515 3.5249H3.4014C3.28947 3.5249 3.21484 3.59952 3.21484 3.71146C3.21484 3.82339 3.28947 3.89801 3.4014 3.89801Z" fill="#309884"/>
<path d="M1.82872 3.05908C1.47427 3.05908 1.17578 3.35757 1.17578 3.71202C1.17578 4.06647 1.47427 4.36496 1.82872 4.36496C2.18317 4.36496 2.48165 4.06647 2.48165 3.71202C2.48165 3.35757 2.18317 3.05908 1.82872 3.05908ZM1.82872 3.99185C1.67948 3.99185 1.54889 3.86126 1.54889 3.71202C1.54889 3.56278 1.67948 3.43219 1.82872 3.43219C1.97796 3.43219 2.10855 3.56278 2.10855 3.71202C2.08989 3.86126 1.97796 3.99185 1.82872 3.99185Z" fill="#309884"/>
<path d="M3.4014 5.95074H7.09515C7.20708 5.95074 7.28171 5.87612 7.28171 5.76419C7.28171 5.65226 7.20708 5.57764 7.09515 5.57764H3.4014C3.28947 5.57764 3.21484 5.65226 3.21484 5.76419C3.21484 5.85747 3.28947 5.95074 3.4014 5.95074Z" fill="#309884"/>
<path d="M1.82872 5.11133C1.47427 5.11133 1.17578 5.40981 1.17578 5.76426C1.17578 6.11872 1.47427 6.4172 1.82872 6.4172C2.18317 6.4172 2.48165 6.11872 2.48165 5.76426C2.48165 5.40981 2.18317 5.11133 1.82872 5.11133ZM1.82872 6.02544C1.67948 6.02544 1.54889 5.89485 1.54889 5.74561C1.54889 5.59637 1.67948 5.46578 1.82872 5.46578C1.97796 5.46578 2.10855 5.59637 2.10855 5.74561C2.08989 5.91351 1.97796 6.02544 1.82872 6.02544Z" fill="#309884"/>
<path d="M1.82872 7.16357C1.47427 7.16357 1.17578 7.46206 1.17578 7.81651C1.17578 8.17096 1.47427 8.46945 1.82872 8.46945C2.18317 8.46945 2.48165 8.17096 2.48165 7.81651C2.463 7.4434 2.18317 7.16357 1.82872 7.16357ZM1.82872 8.07769C1.67948 8.07769 1.54889 7.9471 1.54889 7.79786C1.54889 7.64861 1.67948 7.51803 1.82872 7.51803C1.97796 7.51803 2.10855 7.64861 2.10855 7.79786C2.08989 7.96575 1.97796 8.07769 1.82872 8.07769Z" fill="#309884"/>
</svg>
