<svg width="12" height="12" viewBox="0 0 12 12" fill="none" xmlns="http://www.w3.org/2000/svg">
<path d="M5.66319 9.66769C3.49252 9.66769 1.72656 7.88825 1.72656 5.70155C1.72656 3.5143 3.49252 1.73486 5.66319 1.73486C7.83333 1.73486 9.59929 3.5143 9.59929 5.70155C9.59929 7.88825 7.83333 9.66769 5.66319 9.66769ZM5.66319 2.23083C4.74998 2.23184 3.87446 2.59782 3.22872 3.24849C2.58298 3.89916 2.21977 4.78136 2.21878 5.70155C2.21991 6.62164 2.58319 7.5037 3.22891 8.15425C3.87463 8.80481 4.75008 9.17072 5.66319 9.17172C6.57622 9.17057 7.45153 8.8046 8.09713 8.15407C8.74274 7.50353 9.10594 6.62154 9.10708 5.70155C9.10608 4.78146 8.74294 3.89933 8.09732 3.24868C7.4517 2.59803 6.57631 2.23198 5.66319 2.23083Z" fill="#309884"/>
<path d="M9.67216 10.0904L8.09944 8.50617C8.0766 8.48316 8.05849 8.45584 8.04613 8.42577C8.03377 8.39571 8.02741 8.36348 8.02741 8.33093C8.02741 8.29839 8.03377 8.26616 8.04613 8.2361C8.05849 8.20603 8.0766 8.17871 8.09944 8.15569C8.12228 8.13268 8.14939 8.11443 8.17923 8.10197C8.20907 8.08952 8.24106 8.08311 8.27335 8.08311C8.30565 8.08311 8.33763 8.08952 8.36747 8.10197C8.39731 8.11443 8.42443 8.13268 8.44727 8.15569L10.02 9.74042C10.0428 9.76347 10.0609 9.79082 10.0732 9.8209C10.0855 9.85099 10.0918 9.88323 10.0918 9.91577C10.0917 9.94832 10.0853 9.98053 10.0729 10.0106C10.0605 10.0406 10.0423 10.0679 10.0194 10.0909C9.99658 10.1139 9.96943 10.1321 9.93958 10.1445C9.90972 10.1569 9.87772 10.1633 9.84543 10.1632C9.81313 10.1632 9.78116 10.1567 9.75134 10.1442C9.72151 10.1317 9.69497 10.1134 9.67216 10.0904ZM5.6636 6.07337C5.27225 6.07295 4.89704 5.9161 4.62031 5.63726C4.34358 5.35842 4.18793 4.98035 4.1875 4.586C4.18793 4.19166 4.34358 3.81359 4.62031 3.53475C4.89704 3.25591 5.27225 3.09906 5.6636 3.09863C6.05496 3.09906 6.43016 3.25591 6.70689 3.53475C6.98363 3.81359 7.13928 4.19166 7.13971 4.586C7.13928 4.98035 6.98363 5.35842 6.70689 5.63726C6.43016 5.9161 6.05496 6.07295 5.6636 6.07337ZM5.6636 3.59406C5.40265 3.59421 5.15242 3.69868 4.96785 3.88456C4.78329 4.07044 4.67946 4.32252 4.67918 4.58546C4.67918 5.13227 5.1204 5.5774 5.6636 5.5774C5.92455 5.57712 6.17473 5.4725 6.35919 5.28652C6.54366 5.10054 6.64735 4.8484 6.64749 4.58546C6.64721 4.32262 6.54346 4.07062 6.359 3.88475C6.17455 3.69889 5.92446 3.59435 5.6636 3.59406Z" fill="#309884"/>
<path d="M7.38166 7.80821C7.34933 7.80821 7.31732 7.80178 7.28746 7.7893C7.2576 7.77682 7.23047 7.75852 7.20764 7.73546C7.1848 7.7124 7.16671 7.68503 7.15438 7.65491C7.14206 7.6248 7.13575 7.59253 7.13583 7.55995C7.1354 7.16561 6.97974 6.78754 6.70301 6.50869C6.42628 6.22985 6.05108 6.07301 5.65972 6.07258C5.26837 6.07301 4.89316 6.22985 4.61643 6.50869C4.3397 6.78754 4.18405 7.16561 4.18362 7.55995C4.18362 7.62572 4.15769 7.6888 4.11154 7.7353C4.06538 7.78181 4.00278 7.80793 3.93751 7.80793C3.87224 7.80793 3.80964 7.78181 3.76349 7.7353C3.71734 7.6888 3.69141 7.62572 3.69141 7.55995C3.69197 7.03416 3.89955 6.53008 4.26857 6.15834C4.6376 5.7866 5.13792 5.57758 5.65972 5.57715C6.18144 5.57772 6.68162 5.78681 7.05053 6.15853C7.41943 6.53025 7.62693 7.03425 7.6275 7.55995C7.62757 7.59253 7.62127 7.6248 7.60894 7.65491C7.59662 7.68503 7.57852 7.7124 7.55569 7.73546C7.53285 7.75852 7.50573 7.77682 7.47587 7.7893C7.446 7.80178 7.41399 7.80821 7.38166 7.80821Z" fill="#309884"/>
<path fill-rule="evenodd" clip-rule="evenodd" d="M8.65963 0.495971H3.1492C2.58989 0.495971 2.19966 0.495971 1.89639 0.521391C1.59849 0.54573 1.42779 0.591703 1.2979 0.657688C1.02009 0.800298 0.794235 1.02788 0.652706 1.3078C0.586684 1.43869 0.541596 1.61069 0.517441 1.91087C0.492213 2.21645 0.492213 2.60966 0.492213 3.17324V8.72573C0.492213 9.28931 0.492213 9.68197 0.517441 9.9881C0.541596 10.2883 0.587221 10.4603 0.652706 10.5912C0.794235 10.8711 1.02009 11.0987 1.2979 11.2413C1.42779 11.3078 1.59849 11.3532 1.89639 11.3776C2.19966 11.403 2.58989 11.403 3.1492 11.403H8.65963C9.21894 11.403 9.60863 11.403 9.91244 11.3776C10.2103 11.3532 10.381 11.3073 10.5109 11.2413C10.7887 11.0987 11.0146 10.8711 11.1561 10.5912C11.2221 10.4603 11.2672 10.2883 11.2914 9.9881C11.3166 9.68197 11.3166 9.28931 11.3166 8.72573V3.17324C11.3166 2.60966 11.3166 2.21645 11.2914 1.91087C11.2672 1.61069 11.2216 1.43869 11.1561 1.3078C11.0146 1.02788 10.7887 0.800298 10.5109 0.657688C10.381 0.591162 10.2103 0.54573 9.91244 0.521391C9.60863 0.495971 9.21894 0.495971 8.65963 0.495971ZM0.214706 1.08281C-1.59968e-08 1.50684 0 2.06231 0 3.17324V8.72573C0 9.83666 -1.59968e-08 10.3916 0.214706 10.8162C0.40311 11.1894 0.704235 11.4922 1.0746 11.6826C1.49543 11.899 2.04668 11.899 3.1492 11.899H8.65963C9.76214 11.899 10.3129 11.899 10.7342 11.6826C11.1044 11.4925 11.4054 11.1892 11.5941 10.8162C11.8088 10.3921 11.8088 9.83666 11.8088 8.72573V3.17324C11.8088 2.06231 11.8088 1.50738 11.5941 1.08281C11.4054 0.709769 11.1044 0.406468 10.7342 0.216345C10.3134 -1.61189e-08 9.76214 0 8.65963 0H3.1492C2.04668 0 1.49596 -1.61189e-08 1.0746 0.216345C0.704235 0.406188 0.403647 0.709611 0.214706 1.08281Z" fill="#309884"/>
</svg>
