<svg width="237" height="52" viewBox="0 0 237 52" fill="none" xmlns="http://www.w3.org/2000/svg">
<path d="M71.8481 51.3218C86.0266 51.3218 97.5205 39.833 97.5205 25.6609C97.5205 11.4888 86.0266 0 71.8481 0C57.6697 0 46.1758 11.4888 46.1758 25.6609C46.1758 39.833 57.6697 51.3218 71.8481 51.3218Z" fill="#C6D9D5"/>
<path d="M118.036 51.3218C132.214 51.3218 143.708 39.833 143.708 25.6609C143.708 11.4888 132.214 0 118.036 0C103.857 0 92.3633 11.4888 92.3633 25.6609C92.3633 39.833 103.857 51.3218 118.036 51.3218Z" fill="#C6D9D5"/>
<path d="M164.235 51.3218C178.413 51.3218 189.907 39.833 189.907 25.6609C189.907 11.4888 178.413 0 164.235 0C150.056 0 138.562 11.4888 138.562 25.6609C138.562 39.833 150.056 51.3218 164.235 51.3218Z" fill="#C6D9D5"/>
<path d="M210.415 51.3218C224.593 51.3218 236.087 39.833 236.087 25.6609C236.087 11.4888 224.593 0 210.415 0C196.236 0 184.742 11.4888 184.742 25.6609C184.742 39.833 196.236 51.3218 210.415 51.3218Z" fill="#C9C5C5" fill-opacity="0.2"/>
<path d="M25.6723 51.3218C39.8508 51.3218 51.3447 39.833 51.3447 25.6609C51.3447 11.4888 39.8508 0 25.6723 0C11.4939 0 0 11.4888 0 25.6609C0 39.833 11.4939 51.3218 25.6723 51.3218Z" fill="#C6D9D5"/>
<path d="M164.227 5.15446C152.897 5.15445 143.712 14.3352 143.712 25.6602C143.712 36.9853 152.897 46.166 164.227 46.166C175.557 46.166 184.742 36.9853 184.742 25.6602C184.742 14.3352 175.557 5.15446 164.227 5.15446Z" fill="white" fill-opacity="0.2"/>
<path d="M118.048 5.15446C106.717 5.15445 97.5326 14.3352 97.5326 25.6602C97.5326 36.9853 106.717 46.166 118.048 46.166C129.378 46.166 138.563 36.9853 138.563 25.6602C138.563 14.3352 129.378 5.15446 118.048 5.15446Z" fill="white" fill-opacity="0.2"/>
<path d="M71.8483 5.15446C60.5183 5.15445 51.3334 14.3352 51.3334 25.6602C51.3334 36.9853 60.5183 46.166 71.8483 46.166C83.1784 46.166 92.3633 36.9853 92.3633 25.6602C92.3633 14.3352 83.1784 5.15446 71.8483 5.15446Z" fill="white" fill-opacity="0.2"/>
<path d="M210.419 5.15446C199.089 5.15445 189.904 14.3352 189.904 25.6602C189.904 36.9853 199.089 46.166 210.419 46.166C221.749 46.166 230.934 36.9853 230.934 25.6602C230.934 14.3352 221.749 5.15446 210.419 5.15446Z" fill="white" fill-opacity="0.2"/>
<path d="M25.6609 5.15446C14.3308 5.15445 5.14593 14.3352 5.14593 25.6602C5.14592 36.9853 14.3308 46.166 25.6609 46.166C36.9909 46.166 46.1758 36.9853 46.1758 25.6602C46.1758 14.3352 36.9909 5.15446 25.6609 5.15446Z" fill="white" fill-opacity="0.2"/>
<path d="M233.365 25.6611C232.048 25.6611 230.948 24.6697 230.801 23.3617C229.658 13.119 220.967 5.15529 210.414 5.15529C199.084 5.15529 189.899 14.3358 189.899 25.6611C189.899 25.743 189.9 25.8249 189.901 25.9069V25.9262C189.861 29.8536 188.938 33.5692 187.322 36.8851C183.157 45.4323 174.381 51.322 164.23 51.322C154.077 51.322 145.301 45.4306 141.136 36.8816C139.484 33.4919 138.558 29.6845 138.558 25.6611C138.558 14.3358 129.373 5.15529 118.043 5.15529C106.712 5.15529 97.5272 14.3358 97.5272 25.6611C97.5272 29.6845 96.6004 33.4919 94.9488 36.8816C90.7843 45.4306 82.0083 51.322 71.8554 51.322C61.7025 51.322 52.9266 45.4312 48.7621 36.8821C47.1098 33.4925 46.183 29.685 46.183 25.661C46.183 14.3357 36.9979 5.1552 25.6681 5.1552C15.1152 5.1552 6.42366 13.1189 5.28086 23.3616C5.13449 24.6696 4.03378 25.661 2.71698 25.661C1.28016 25.661 0.136719 24.4929 0.136719 23.0924C0.136719 22.9976 0.142025 22.9022 0.152546 22.8062C1.5729 9.9782 12.4547 8.92984e-05 25.6681 8.92984e-05C35.8204 8.92984e-05 44.5969 5.89094 48.7621 14.44C50.4137 17.8296 51.3406 21.6371 51.3406 25.6612C51.3406 36.9865 60.5252 46.1669 71.8555 46.1669C83.1853 46.1669 92.3705 36.9865 92.3705 25.6612C92.3705 21.6377 93.2973 17.8303 94.949 14.4406C99.1135 5.89167 107.89 0.000184178 118.043 0.000184178C128.196 0.000184178 136.972 5.89167 141.136 14.4406C142.788 17.8302 143.715 21.6376 143.715 25.6611C143.715 36.9864 152.9 46.1668 164.23 46.1668C175.56 46.1668 184.745 36.9864 184.745 25.6611C184.745 25.5727 184.744 25.4843 184.743 25.396V25.3889C184.784 21.4644 185.706 17.7506 187.322 14.437C191.487 5.88975 200.263 0 210.414 0C223.627 0 234.509 9.97811 235.93 22.8063C236.098 24.3302 234.898 25.6611 233.365 25.6611Z" fill="url(#paint0_linear_933_540)"/>
<path opacity="0.1" d="M46.1812 25.6602C46.1812 29.6841 47.108 33.4917 48.7603 36.8813C48.3505 37.7235 47.895 38.5399 47.3979 39.327C47.1373 38.8612 46.8897 38.3877 46.6548 37.9061C45.8849 36.3265 45.2713 34.6985 44.8164 33.0294C45.6982 30.7423 46.1812 28.258 46.1812 25.6602Z" fill="#999999"/>
<path opacity="0.1" d="M52.7089 18.292C51.8272 20.5785 51.3442 23.0634 51.3442 25.6606C51.3442 21.6366 50.4173 17.8291 48.7656 14.4394C49.1755 13.5972 49.6304 12.7803 50.1274 11.9932C50.3885 12.459 50.6363 12.933 50.871 13.4147C51.641 14.9943 52.2539 16.6229 52.7089 18.292Z" fill="#999999"/>
<path opacity="0.1" d="M94.9511 14.4394C93.2994 17.8291 92.3725 21.6365 92.3725 25.6599C92.3725 23.0627 91.8895 20.5778 91.0078 18.2914C91.4628 16.6223 92.0763 14.9936 92.8456 13.4141C93.0804 12.9325 93.3281 12.4584 93.5892 11.9932C94.0863 12.7803 94.5412 13.5972 94.9511 14.4394Z" fill="#999999"/>
<path opacity="0.1" d="M138.56 25.6602C138.56 29.6836 139.487 33.491 141.139 36.8807C140.729 37.7229 140.274 38.5398 139.777 39.3269C139.516 38.8611 139.268 38.3871 139.033 37.9054C138.264 36.3258 137.65 34.6978 137.195 33.0287C138.077 30.7423 138.56 28.2574 138.56 25.6602Z" fill="#999999"/>
<path opacity="0.1" d="M145.076 18.2918C144.194 20.5783 143.711 23.0631 143.711 25.6604C143.711 21.6369 142.785 17.8295 141.133 14.4398C141.543 13.5977 141.998 12.7813 142.495 11.9941C142.756 12.4594 143.003 12.9334 143.238 13.4151C144.008 14.9946 144.621 16.6227 145.076 18.2918Z" fill="#999999"/>
<path opacity="0.1" d="M184.744 25.4033C184.745 25.4887 184.746 25.5742 184.746 25.6603C184.746 25.7463 184.745 25.8317 184.744 25.9172C184.743 25.8318 184.742 25.7458 184.742 25.6603C184.742 25.5748 184.743 25.4888 184.744 25.4033Z" fill="#999999"/>
<path opacity="0.1" d="M184.74 25.3952C184.709 22.8916 184.228 20.4963 183.375 18.2859V18.2853C183.83 16.6162 184.444 14.9893 185.213 13.4109C185.448 12.9299 185.696 12.4565 185.957 11.9912C186.454 12.7783 186.909 13.5942 187.319 14.4363C185.702 17.7521 184.78 21.4683 184.74 25.3952Z" fill="#999999"/>
<path opacity="0.1" d="M189.904 25.832C189.902 25.7753 189.902 25.7179 189.902 25.6611C189.902 25.6044 189.902 25.547 189.904 25.4902C189.905 25.547 189.905 25.6044 189.905 25.6611C189.905 25.7179 189.905 25.7753 189.904 25.832Z" fill="#999999"/>
<path opacity="0.1" d="M191.268 33.0321C190.813 34.7017 190.199 36.3304 189.43 37.9099C189.195 38.391 188.947 38.8644 188.686 39.3296C188.189 38.5425 187.734 37.7267 187.324 36.8846C188.953 33.5435 189.877 29.7958 189.903 25.835C189.924 28.3702 190.406 30.7959 191.268 33.0321Z" fill="#999999"/>
<path d="M27.481 27.582C27.481 28.1976 27.966 28.9438 28.563 28.9438C29.1599 28.9438 29.645 28.1976 29.645 27.582C29.645 26.985 29.1599 26.5 28.563 26.5C27.966 26.5187 27.481 27.0037 27.481 27.582ZM28.5443 26.8918C28.9361 26.8918 29.2532 27.2089 29.2532 27.6007C29.2532 28.0111 28.8988 28.5894 28.5443 28.5894C28.1899 28.5894 27.8354 28.0297 27.8354 27.6007C27.8541 27.2089 28.1712 26.8918 28.5443 26.8918Z" fill="#309884"/>
<path d="M28.5605 25.4559C28.4299 25.4559 28.2993 25.4746 28.1687 25.4932V19.878C28.1687 19.766 28.0941 19.6914 27.9822 19.6914H19.8858C19.7925 19.6914 19.6992 19.766 19.6992 19.878V30.3996C19.6992 30.5115 19.7738 30.5861 19.8858 30.5861H26.2286C26.7882 31.2391 27.6277 31.6308 28.5418 31.6308C29.3627 31.6308 30.1649 31.3137 30.7991 30.6607C31.3401 30.0824 31.6386 29.3362 31.6386 28.5527C31.6386 26.8364 30.2581 25.4559 28.5605 25.4559ZM31.2655 28.5527C31.2655 29.0937 31.1163 29.5974 30.8178 30.0451L30.7991 29.8959C30.7805 29.672 30.6499 29.4668 30.4633 29.3549C30.1462 29.187 29.8291 29.0377 29.4933 28.9444C29.4186 28.9258 29.3254 28.9631 29.2881 29.0377L28.6724 30.1384H28.4299L27.8143 29.0564C27.777 28.9818 27.6837 28.9444 27.6091 28.9631C27.2919 29.0564 26.9561 29.187 26.639 29.3549C26.4338 29.4668 26.3032 29.672 26.2845 29.8959L26.2659 30.0265C25.9861 29.5787 25.8182 29.075 25.8182 28.534C25.8182 27.0603 27.0121 25.829 28.5232 25.829C30.0529 25.829 31.2655 27.0416 31.2655 28.5527ZM20.0723 20.0645H27.777V25.5678C26.8442 25.8104 26.098 26.4633 25.7249 27.3214H23.0945C22.9826 27.3214 22.9079 27.3961 22.9079 27.508C22.9079 27.6199 22.9826 27.6945 23.0945 27.6945H25.5943C25.5197 27.9744 25.4637 28.2542 25.4637 28.5527C25.4637 29.1497 25.6316 29.728 25.9488 30.213H20.0723V20.0645ZM26.6203 30.4555L26.6577 29.9145C26.6577 29.8212 26.7323 29.728 26.8069 29.672C27.0494 29.5414 27.3106 29.4295 27.5531 29.3549L28.1501 30.4182C28.1874 30.4742 28.2434 30.5115 28.318 30.5115H28.7844C28.859 30.5115 28.915 30.4742 28.9523 30.4182L29.5492 29.3549C29.7918 29.4295 30.0529 29.5414 30.2954 29.672C30.3887 29.728 30.4447 29.8212 30.4447 29.9145L30.482 30.4555C29.3627 31.5562 27.665 31.4816 26.6203 30.4555Z" fill="#309884"/>
<path d="M23.0992 21.5372H26.7929C26.9048 21.5372 26.9795 21.4625 26.9795 21.3506C26.9795 21.2387 26.9048 21.1641 26.7929 21.1641H23.0992C22.9872 21.1641 22.9126 21.2387 22.9126 21.3506C22.9126 21.4625 22.9872 21.5372 23.0992 21.5372Z" fill="#309884"/>
<path d="M21.5274 20.7168C21.1543 20.7168 20.8745 20.9966 20.8745 21.3511C20.8745 21.7055 21.173 22.004 21.5274 22.004C21.8819 22.004 22.1804 21.7055 22.1804 21.3511C22.1804 20.9966 21.8819 20.7168 21.5274 20.7168ZM21.5274 21.6309C21.3782 21.6309 21.2476 21.5003 21.2476 21.3511C21.2476 21.2018 21.3782 21.0712 21.5274 21.0712C21.6767 21.0712 21.8073 21.2018 21.8073 21.3511C21.7886 21.519 21.6767 21.6309 21.5274 21.6309Z" fill="#309884"/>
<path d="M23.0992 23.5899H26.7929C26.9048 23.5899 26.9795 23.5153 26.9795 23.4034C26.9795 23.2914 26.9048 23.2168 26.7929 23.2168H23.0992C22.9872 23.2168 22.9126 23.2914 22.9126 23.4034C22.9126 23.5153 22.9872 23.5899 23.0992 23.5899Z" fill="#309884"/>
<path d="M21.5274 22.75C21.173 22.75 20.8745 23.0485 20.8745 23.4029C20.8745 23.7574 21.173 24.0559 21.5274 24.0559C21.8819 24.0559 22.1804 23.7574 22.1804 23.4029C22.1804 23.0485 21.8819 22.75 21.5274 22.75ZM21.5274 23.6828C21.3782 23.6828 21.2476 23.5522 21.2476 23.4029C21.2476 23.2537 21.3782 23.1231 21.5274 23.1231C21.6767 23.1231 21.8073 23.2537 21.8073 23.4029C21.7886 23.5522 21.6767 23.6828 21.5274 23.6828Z" fill="#309884"/>
<path d="M23.0992 25.6417H26.7929C26.9048 25.6417 26.9795 25.567 26.9795 25.4551C26.9795 25.3432 26.9048 25.2686 26.7929 25.2686H23.0992C22.9872 25.2686 22.9126 25.3432 22.9126 25.4551C22.9126 25.5484 22.9872 25.6417 23.0992 25.6417Z" fill="#309884"/>
<path d="M21.5274 24.8027C21.173 24.8027 20.8745 25.1012 20.8745 25.4557C20.8745 25.8101 21.173 26.1086 21.5274 26.1086C21.8819 26.1086 22.1804 25.8101 22.1804 25.4557C22.1804 25.1012 21.8819 24.8027 21.5274 24.8027ZM21.5274 25.7168C21.3782 25.7168 21.2476 25.5863 21.2476 25.437C21.2476 25.2878 21.3782 25.1572 21.5274 25.1572C21.6767 25.1572 21.8073 25.2878 21.8073 25.437C21.7886 25.6049 21.6767 25.7168 21.5274 25.7168Z" fill="#309884"/>
<path d="M21.5274 26.8545C21.173 26.8545 20.8745 27.153 20.8745 27.5074C20.8745 27.8619 21.173 28.1604 21.5274 28.1604C21.8819 28.1604 22.1804 27.8619 22.1804 27.5074C22.1617 27.1343 21.8819 26.8545 21.5274 26.8545ZM21.5274 27.7686C21.3782 27.7686 21.2476 27.638 21.2476 27.4888C21.2476 27.3395 21.3782 27.2089 21.5274 27.2089C21.6767 27.2089 21.8073 27.3395 21.8073 27.4888C21.7886 27.6567 21.6767 27.7686 21.5274 27.7686Z" fill="#309884"/>
<path d="M71.6068 29.3977C69.4361 29.3977 67.6702 27.6182 67.6702 25.4315C67.6702 23.2443 69.4361 21.4648 71.6068 21.4648C73.7769 21.4648 75.5429 23.2443 75.5429 25.4315C75.5429 27.6182 73.7769 29.3977 71.6068 29.3977ZM71.6068 21.9608C70.6936 21.9618 69.8181 22.3278 69.1723 22.9785C68.5266 23.6291 68.1634 24.5113 68.1624 25.4315C68.1635 26.3516 68.5268 27.2337 69.1725 27.8842C69.8182 28.5348 70.6937 28.9007 71.6068 28.9017C72.5198 28.9006 73.3951 28.5346 74.0407 27.884C74.6863 27.2335 75.0495 26.3515 75.0507 25.4315C75.0497 24.5114 74.6865 23.6293 74.0409 22.9787C73.3953 22.328 72.5199 21.962 71.6068 21.9608Z" fill="#309884"/>
<path d="M75.6163 29.8208L74.0435 28.2366C74.0207 28.2136 74.0026 28.1863 73.9902 28.1562C73.9779 28.1262 73.9715 28.0939 73.9715 28.0614C73.9715 28.0289 73.9779 27.9966 73.9902 27.9666C74.0026 27.9365 74.0207 27.9092 74.0435 27.8862C74.0664 27.8632 74.0935 27.8449 74.1233 27.8324C74.1532 27.82 74.1851 27.8136 74.2174 27.8136C74.2497 27.8136 74.2817 27.82 74.3116 27.8324C74.3414 27.8449 74.3685 27.8632 74.3914 27.8862L75.9641 29.4709C75.9869 29.4939 76.005 29.5213 76.0173 29.5514C76.0296 29.5815 76.0359 29.6137 76.0358 29.6462C76.0358 29.6788 76.0294 29.711 76.017 29.7411C76.0046 29.7711 75.9864 29.7984 75.9635 29.8214C75.9407 29.8443 75.9135 29.8626 75.8837 29.875C75.8538 29.8874 75.8218 29.8937 75.7895 29.8937C75.7572 29.8936 75.7252 29.8872 75.6954 29.8747C75.6656 29.8622 75.6391 29.8439 75.6163 29.8208ZM71.6077 25.8038C71.2163 25.8034 70.8411 25.6466 70.5644 25.3677C70.2877 25.0889 70.132 24.7108 70.1316 24.3165C70.132 23.9221 70.2877 23.5441 70.5644 23.2652C70.8411 22.9864 71.2163 22.8295 71.6077 22.8291C71.9991 22.8295 72.3743 22.9864 72.651 23.2652C72.9277 23.5441 73.0834 23.9221 73.0838 24.3165C73.0834 24.7108 72.9277 25.0889 72.651 25.3677C72.3743 25.6466 71.9991 25.8034 71.6077 25.8038ZM71.6077 23.3245C71.3467 23.3247 71.0965 23.4292 70.9119 23.615C70.7274 23.8009 70.6236 24.053 70.6233 24.3159C70.6233 24.8627 71.0645 25.3079 71.6077 25.3079C71.8686 25.3076 72.1188 25.203 72.3033 25.017C72.4878 24.831 72.5914 24.5789 72.5916 24.3159C72.5913 24.0531 72.4875 23.8011 72.3031 23.6152C72.1186 23.4294 71.8686 23.3248 71.6077 23.3245Z" fill="#309884"/>
<path d="M73.328 27.5387C73.2956 27.5387 73.2636 27.5322 73.2338 27.5198C73.2039 27.5073 73.1768 27.489 73.1539 27.4659C73.1311 27.4429 73.113 27.4155 73.1007 27.3854C73.0884 27.3553 73.082 27.323 73.0821 27.2904C73.0817 26.8961 72.926 26.518 72.6493 26.2392C72.3726 25.9603 71.9974 25.8035 71.606 25.803C71.2147 25.8035 70.8395 25.9603 70.5627 26.2392C70.286 26.518 70.1303 26.8961 70.1299 27.2904C70.1299 27.3562 70.104 27.4193 70.0578 27.4658C70.0117 27.5123 69.9491 27.5384 69.8838 27.5384C69.8185 27.5384 69.7559 27.5123 69.7098 27.4658C69.6636 27.4193 69.6377 27.3562 69.6377 27.2904C69.6383 26.7646 69.8458 26.2605 70.2149 25.8888C70.5839 25.5171 71.0842 25.308 71.606 25.3076C72.1277 25.3082 72.6279 25.5173 72.9968 25.889C73.3657 26.2607 73.5732 26.7647 73.5738 27.2904C73.5739 27.323 73.5676 27.3553 73.5552 27.3854C73.5429 27.4155 73.5248 27.4429 73.502 27.4659C73.4791 27.489 73.452 27.5073 73.4222 27.5198C73.3923 27.5322 73.3603 27.5387 73.328 27.5387Z" fill="#309884"/>
<path fill-rule="evenodd" clip-rule="evenodd" d="M74.6032 20.2264H69.0928C68.5335 20.2264 68.1433 20.2264 67.84 20.2519C67.5421 20.2762 67.3714 20.3222 67.2415 20.3882C66.9637 20.5308 66.7378 20.7583 66.5963 21.0383C66.5303 21.1692 66.4852 21.3412 66.461 21.6413C66.4358 21.9469 66.4358 22.3401 66.4358 22.9037V28.4562C66.4358 29.0198 66.4358 29.4124 66.461 29.7186C66.4852 30.0187 66.5308 30.1907 66.5963 30.3216C66.7378 30.6016 66.9637 30.8291 67.2415 30.9717C67.3714 31.0383 67.5421 31.0837 67.84 31.108C68.1433 31.1335 68.5335 31.1335 69.0928 31.1335H74.6032C75.1625 31.1335 75.5522 31.1335 75.856 31.108C76.1539 31.0837 76.3246 31.0377 76.4545 30.9717C76.7323 30.8291 76.9582 30.6016 77.0997 30.3216C77.1657 30.1907 77.2108 30.0187 77.235 29.7186C77.2602 29.4124 77.2602 29.0198 77.2602 28.4562V22.9037C77.2602 22.3401 77.2602 21.9469 77.235 21.6413C77.2108 21.3412 77.1652 21.1692 77.0997 21.0383C76.9582 20.7583 76.7323 20.5308 76.4545 20.3882C76.3246 20.3216 76.1539 20.2762 75.856 20.2519C75.5522 20.2264 75.1625 20.2264 74.6032 20.2264ZM66.1583 20.8133C65.9436 21.2373 65.9436 21.7928 65.9436 22.9037V28.4562C65.9436 29.5671 65.9436 30.1221 66.1583 30.5466C66.3467 30.9198 66.6478 31.2227 67.0182 31.4131C67.439 31.6294 67.9903 31.6294 69.0928 31.6294H74.6032C75.7057 31.6294 76.2565 31.6294 76.6778 31.4131C77.048 31.2229 77.349 30.9196 77.5377 30.5466C77.7524 30.1226 77.7524 29.5671 77.7524 28.4562V22.9037C77.7524 21.7928 77.7524 21.2379 77.5377 20.8133C77.349 20.4402 77.048 20.1369 76.6778 19.9468C76.257 19.7305 75.7057 19.7305 74.6032 19.7305H69.0928C67.9903 19.7305 67.4396 19.7305 67.0182 19.9468C66.6478 20.1367 66.3473 20.4401 66.1583 20.8133Z" fill="#309884"/>
<path fill-rule="evenodd" clip-rule="evenodd" d="M113.833 20.0409C113.685 20.0409 113.565 20.1611 113.565 20.3085L113.565 31.0525C113.565 31.1999 113.685 31.32 113.833 31.32L122.246 31.32C122.394 31.32 122.514 31.1999 122.514 31.0525L122.514 20.3085C122.514 20.1611 122.394 20.0409 122.246 20.0409L113.833 20.0409ZM122.246 31.6304H113.833C113.514 31.6304 113.255 31.371 113.255 31.0525L113.255 20.3085C113.255 19.99 113.514 19.7305 113.833 19.7305L122.246 19.7305C122.565 19.7305 122.824 19.99 122.824 20.3085L122.824 31.0525C122.824 31.3709 122.565 31.6305 122.246 31.6304Z" fill="#309884"/>
<path fill-rule="evenodd" clip-rule="evenodd" d="M114.462 23.2479H116.129V22.8114C116.129 22.5708 115.933 22.3749 115.692 22.3749L114.899 22.3749C114.658 22.3749 114.462 22.5708 114.462 22.8114L114.462 23.2479ZM116.284 23.5583H114.307C114.221 23.5583 114.152 23.4888 114.152 23.4031L114.152 22.8114C114.152 22.3994 114.487 22.0645 114.899 22.0645L115.692 22.0645C116.104 22.0645 116.439 22.3994 116.439 22.8114L116.439 23.4031C116.439 23.4888 116.369 23.5583 116.284 23.5583Z" fill="#309884"/>
<path fill-rule="evenodd" clip-rule="evenodd" d="M115.298 20.825C115.081 20.825 114.905 21.0014 114.905 21.2186C114.905 21.4354 115.081 21.6119 115.298 21.6119C115.515 21.6119 115.691 21.4354 115.691 21.2186C115.692 21.0014 115.515 20.825 115.298 20.825ZM115.298 21.9222C114.91 21.9222 114.594 21.6065 114.594 21.2186C114.594 20.8304 114.91 20.5146 115.298 20.5146C115.686 20.5146 116.002 20.8304 116.002 21.2186C116.002 21.6065 115.686 21.9222 115.298 21.9222Z" fill="#309884"/>
<path fill-rule="evenodd" clip-rule="evenodd" d="M121.776 21.5087H117.377C117.291 21.5087 117.222 21.4391 117.222 21.3534C117.222 21.2677 117.291 21.1982 117.377 21.1982H121.776C121.861 21.1982 121.931 21.2678 121.931 21.3534C121.931 21.4391 121.861 21.5087 121.776 21.5087Z" fill="#309884"/>
<path fill-rule="evenodd" clip-rule="evenodd" d="M121.776 22.8749H117.377C117.291 22.8749 117.222 22.8054 117.222 22.7197C117.222 22.634 117.291 22.5645 117.377 22.5645H121.776C121.861 22.5645 121.931 22.634 121.931 22.7197C121.931 22.8053 121.861 22.8749 121.776 22.8749Z" fill="#309884"/>
<path fill-rule="evenodd" clip-rule="evenodd" d="M114.462 26.8915H116.129V26.4549C116.129 26.2143 115.933 26.0184 115.692 26.0184L114.899 26.0184C114.658 26.0184 114.462 26.2143 114.462 26.4549L114.462 26.8915ZM116.284 27.2019H114.307C114.221 27.2019 114.152 27.1324 114.152 27.0467L114.152 26.4549C114.152 26.0432 114.487 25.708 114.899 25.708L115.692 25.708C116.104 25.708 116.439 26.0432 116.439 26.4549L116.439 27.0467C116.439 27.1324 116.369 27.2019 116.284 27.2019Z" fill="#309884"/>
<path fill-rule="evenodd" clip-rule="evenodd" d="M115.298 24.4685C115.081 24.4685 114.905 24.645 114.905 24.8618C114.905 25.0787 115.081 25.2554 115.298 25.2554C115.515 25.2554 115.691 25.0787 115.691 24.8618C115.692 24.645 115.515 24.4685 115.298 24.4685ZM115.298 25.5657C114.91 25.5657 114.594 25.25 114.594 24.8618C114.594 24.4739 114.91 24.1582 115.298 24.1582C115.686 24.1582 116.002 24.4739 116.002 24.8618C116.002 25.25 115.686 25.5657 115.298 25.5657Z" fill="#309884"/>
<path fill-rule="evenodd" clip-rule="evenodd" d="M121.776 25.1522H117.377C117.291 25.1522 117.222 25.0827 117.222 24.997C117.222 24.9111 117.291 24.8418 117.377 24.8418H121.776C121.861 24.8418 121.931 24.9111 121.931 24.997C121.931 25.0827 121.861 25.1522 121.776 25.1522Z" fill="#309884"/>
<path fill-rule="evenodd" clip-rule="evenodd" d="M121.776 26.5194H117.377C117.291 26.5194 117.222 26.4499 117.222 26.3642C117.222 26.2785 117.291 26.209 117.377 26.209L121.776 26.209C121.861 26.209 121.931 26.2785 121.931 26.3642C121.931 26.4499 121.861 26.5194 121.776 26.5194Z" fill="#309884"/>
<path fill-rule="evenodd" clip-rule="evenodd" d="M114.462 30.535H116.129V30.0985C116.129 29.8576 115.933 29.662 115.692 29.662L114.899 29.662C114.658 29.662 114.462 29.8576 114.462 30.0985L114.462 30.535ZM116.284 30.8454H114.307C114.221 30.8454 114.152 30.7759 114.152 30.6902L114.152 30.0985C114.152 29.6865 114.487 29.3516 114.899 29.3516L115.692 29.3516C116.104 29.3516 116.439 29.6865 116.439 30.0985L116.439 30.6902C116.439 30.7759 116.369 30.8454 116.284 30.8454Z" fill="#309884"/>
<path fill-rule="evenodd" clip-rule="evenodd" d="M115.298 28.1121C115.081 28.1121 114.905 28.2885 114.905 28.5057C114.905 28.7225 115.081 28.899 115.298 28.899C115.515 28.899 115.691 28.7225 115.691 28.5057C115.692 28.2885 115.515 28.1121 115.298 28.1121ZM115.298 29.2093C114.91 29.2093 114.594 28.8936 114.594 28.5057C114.594 28.1175 114.91 27.8018 115.298 27.8018C115.686 27.8018 116.002 28.1175 116.002 28.5057C116.002 28.8936 115.686 29.2093 115.298 29.2093Z" fill="#309884"/>
<path fill-rule="evenodd" clip-rule="evenodd" d="M121.776 28.7958H117.377C117.291 28.7958 117.222 28.7263 117.222 28.6406C117.222 28.5549 117.291 28.4854 117.377 28.4854L121.776 28.4854C121.861 28.4854 121.931 28.5549 121.931 28.6406C121.931 28.7262 121.861 28.7958 121.776 28.7958Z" fill="#309884"/>
<path fill-rule="evenodd" clip-rule="evenodd" d="M121.776 30.163H117.377C117.291 30.163 117.222 30.0934 117.222 30.0078C117.222 29.9221 117.291 29.8525 117.377 29.8525L121.776 29.8525C121.861 29.8525 121.931 29.9221 121.931 30.0078C121.931 30.0934 121.861 30.163 121.776 30.163Z" fill="#309884"/>
<path d="M164.227 30.271C164.227 30.1211 164.349 29.9997 164.499 29.9997H165.041C165.191 29.9997 165.312 30.1211 165.312 30.271C165.312 30.4209 165.191 30.5421 165.041 30.5421H164.499C164.349 30.5423 164.227 30.4209 164.227 30.271ZM170.736 23.491V29.1862V30.5421C170.736 31.1403 170.25 31.627 169.651 31.627C166.019 31.627 163.599 31.627 160.16 31.627C159.561 31.627 159.075 31.1405 159.075 30.5421V29.1862V25.1183H157.99C157.84 25.1183 157.719 24.9971 157.719 24.8472V19.9656C157.719 19.8157 157.84 19.6943 157.99 19.6943H164.77C164.92 19.6943 165.041 19.8157 165.041 19.9656V22.4064H169.651C170.25 22.4062 170.736 22.8928 170.736 23.491ZM170.194 29.4575H159.617V30.5423C159.617 30.8413 159.861 31.0848 160.16 31.0848H163.685H165.855H169.651C169.95 31.0848 170.194 30.8413 170.194 30.5423L170.194 29.4575ZM158.261 24.5759H159.075H159.346H159.617H164.499V22.9486V22.6773V22.4062V20.2367H158.261V24.5759ZM159.617 28.915H170.194V23.491C170.194 23.192 169.95 22.9486 169.651 22.9486H165.041V24.847C165.041 24.9969 164.92 25.1181 164.77 25.1181H159.617V28.915ZM162.6 27.0167C162.6 26.8676 162.478 26.7456 162.329 26.7456C162.18 26.7456 162.058 26.8676 162.058 27.0167C162.058 27.1658 162.18 27.288 162.329 27.288C162.478 27.2878 162.6 27.1658 162.6 27.0167ZM161.515 27.0167C161.515 26.8676 161.393 26.7456 161.244 26.7456H160.431C160.282 26.7456 160.159 26.8676 160.159 27.0167C160.159 27.1658 160.282 27.288 160.431 27.288H161.244C161.393 27.2878 161.515 27.1658 161.515 27.0167ZM165.312 26.7454H163.414C163.265 26.7454 163.143 26.8674 163.143 27.0165C163.143 27.1657 163.265 27.2878 163.414 27.2878H165.312C165.461 27.2878 165.583 27.1657 165.583 27.0165C165.583 26.8674 165.461 26.7454 165.312 26.7454ZM165.312 27.8302H161.515C161.365 27.8302 161.244 27.9514 161.244 28.1013C161.244 28.2512 161.365 28.3726 161.515 28.3726H165.312C165.462 28.3726 165.583 28.2512 165.583 28.1013C165.584 27.9516 165.462 27.8302 165.312 27.8302ZM165.312 25.6607H160.431C160.281 25.6607 160.159 25.782 160.159 25.9319C160.159 26.0819 160.281 26.2032 160.431 26.2032H165.312C165.462 26.2032 165.583 26.0819 165.583 25.9319C165.584 25.7819 165.462 25.6607 165.312 25.6607ZM169.651 28.1015C169.651 28.2514 169.53 28.3727 169.38 28.3727C169.23 28.3727 169.109 28.2514 169.109 28.1015C169.109 27.6528 168.744 27.288 168.296 27.288H168.024H167.753C167.305 27.288 166.94 27.6528 166.94 28.1015C166.94 28.2514 166.818 28.3727 166.668 28.3727C166.518 28.3727 166.397 28.2514 166.397 28.1015C166.397 27.5287 166.755 27.0388 167.258 26.8405C167.144 26.6614 167.075 26.4414 167.075 26.2032C167.075 25.6048 167.501 25.1183 168.024 25.1183C168.548 25.1183 168.974 25.6048 168.974 26.2032C168.974 26.4416 168.905 26.6614 168.791 26.8405C169.294 27.0388 169.651 27.5287 169.651 28.1015ZM167.617 26.2031C167.617 26.4971 167.804 26.7454 168.024 26.7454C168.245 26.7454 168.431 26.4971 168.431 26.2031C168.431 25.909 168.245 25.6605 168.024 25.6605C167.804 25.6607 167.617 25.909 167.617 26.2031ZM159.075 24.0335C158.925 24.0335 158.803 23.9122 158.803 23.7624C158.803 23.1895 159.161 22.6996 159.664 22.5014C159.55 22.3222 159.481 22.1024 159.481 21.864C159.481 21.2656 159.907 20.7791 160.43 20.7791C160.954 20.7791 161.38 21.2656 161.38 21.864C161.38 22.0617 161.332 22.2466 161.251 22.4064C161.235 22.4392 161.216 22.4708 161.197 22.5013C161.31 22.546 161.416 22.6055 161.512 22.6775C161.615 22.7548 161.706 22.8458 161.784 22.9488C161.955 23.1757 162.058 23.4569 162.058 23.7624C162.058 23.9122 161.936 24.0335 161.786 24.0335C161.636 24.0335 161.515 23.9122 161.515 23.7624C161.515 23.3138 161.15 22.9488 160.702 22.9488H160.43H160.159C159.711 22.9488 159.346 23.3138 159.346 23.7624C159.346 23.9122 159.225 24.0335 159.075 24.0335ZM160.024 21.8639C160.024 22.1579 160.21 22.4062 160.431 22.4062C160.651 22.4062 160.837 22.1577 160.837 21.8639C160.837 21.5698 160.651 21.3215 160.431 21.3215C160.21 21.3215 160.024 21.5698 160.024 21.8639ZM162.6 21.8639C162.749 21.8639 162.872 21.7417 162.872 21.5926C162.872 21.4435 162.994 21.3215 163.143 21.3215C163.292 21.3215 163.414 21.4435 163.414 21.5926V21.7987C163.414 21.9399 163.357 22.0806 163.254 22.181L163.189 22.2487C163.141 22.2963 163.098 22.3496 163.059 22.4061C163.013 22.4747 162.973 22.5482 162.945 22.6255C162.938 22.6425 162.933 22.6598 162.93 22.6772C162.92 22.7295 162.927 22.783 162.948 22.8316C162.969 22.8804 163.004 22.9205 163.046 22.9485C163.063 22.9593 163.08 22.9686 163.099 22.9754C163.129 22.989 163.162 22.9944 163.197 22.9944C163.251 22.9944 163.303 22.9775 163.346 22.9485C163.392 22.9178 163.428 22.8737 163.449 22.821C163.469 22.7698 163.497 22.7203 163.531 22.6772C163.544 22.6609 163.557 22.6452 163.571 22.6312L163.639 22.566C163.688 22.5168 163.731 22.463 163.769 22.4061C163.889 22.2271 163.956 22.0144 163.956 21.7985V21.5924C163.956 21.1448 163.59 20.7788 163.143 20.7788C162.695 20.7788 162.329 21.1448 162.329 21.5924C162.329 21.7417 162.451 21.8639 162.6 21.8639ZM163.143 23.5289C162.994 23.5289 162.872 23.6509 162.872 23.8C162.872 23.9491 162.994 24.0713 163.143 24.0713C163.292 24.0713 163.414 23.9491 163.414 23.8C163.414 23.6509 163.292 23.5289 163.143 23.5289Z" fill="#309884"/>
<path d="M210.29 25.2186L210.737 27.0288L210.29 27.4547L209.843 27.0288L210.29 25.2186C210.139 25.2184 209.989 25.202 209.841 25.1699L209.409 26.9215C209.39 26.9981 209.391 27.0783 209.413 27.154C209.435 27.2297 209.477 27.2982 209.534 27.3526L209.982 27.7785C210.065 27.8577 210.175 27.9019 210.29 27.9019C210.405 27.9019 210.515 27.8577 210.598 27.7785L211.046 27.3526C211.103 27.2982 211.144 27.2297 211.167 27.154C211.189 27.0783 211.19 26.9981 211.171 26.9215L210.739 25.1699C210.591 25.202 210.441 25.2184 210.29 25.2186Z" fill="#309884"/>
<path d="M211.967 23.0941C211.967 22.7624 211.869 22.4381 211.685 22.1623C211.5 21.8865 211.238 21.6716 210.932 21.5447C210.625 21.4177 210.288 21.3845 209.963 21.4492C209.638 21.5139 209.339 21.6737 209.104 21.9082C208.87 22.1427 208.71 22.4416 208.645 22.7669C208.581 23.0922 208.614 23.4294 208.741 23.7359C208.868 24.0423 209.083 24.3042 209.358 24.4885C209.634 24.6728 209.958 24.7711 210.29 24.7711C210.735 24.7707 211.161 24.5938 211.475 24.2794C211.79 23.965 211.967 23.5387 211.967 23.0941ZM210.29 24.3239C210.047 24.3239 209.809 24.2518 209.607 24.1167C209.405 23.9815 209.247 23.7894 209.154 23.5647C209.061 23.34 209.036 23.0927 209.084 22.8541C209.131 22.6156 209.248 22.3964 209.42 22.2244C209.592 22.0524 209.812 21.9353 210.05 21.8878C210.289 21.8404 210.536 21.8647 210.761 21.9578C210.985 22.0509 211.178 22.2086 211.313 22.4108C211.448 22.613 211.52 22.8508 211.52 23.0941C211.52 23.4201 211.39 23.7327 211.159 23.9633C210.929 24.1939 210.616 24.3236 210.29 24.3239Z" fill="#309884"/>
<path d="M213.744 26.103C213.691 25.6584 213.492 25.244 213.178 24.9252C212.863 24.6065 212.452 24.4015 212.008 24.3428C211.89 24.5043 211.75 24.6484 211.592 24.771H211.746C212.161 24.7715 212.559 24.9366 212.853 25.23C213.146 25.5235 213.311 25.9213 213.312 26.3363V26.5337C213.443 26.3774 213.587 26.2333 213.744 26.103Z" fill="#309884"/>
<path d="M207.494 28.3488C207.435 28.3487 207.378 28.3252 207.336 28.2832C207.294 28.2413 207.271 28.1845 207.27 28.1252V26.3363C207.271 25.9213 207.436 25.5235 207.729 25.23C208.023 24.9366 208.421 24.7715 208.836 24.7711H208.99C208.832 24.6484 208.692 24.5043 208.575 24.3428C208.091 24.4065 207.646 24.6437 207.324 25.0104C207.002 25.3771 206.824 25.8483 206.823 26.3363V28.1252C206.823 28.3031 206.894 28.4736 207.02 28.5993C207.146 28.7251 207.316 28.7958 207.494 28.796H212.528C212.527 28.7588 212.525 28.7217 212.525 28.6842C212.525 28.571 212.531 28.4592 212.542 28.3488H207.494Z" fill="#309884"/>
<path d="M210.294 30.9207C209.241 30.9209 208.212 30.6118 207.334 30.0317C206.456 29.4516 205.768 28.6262 205.356 27.6581C204.943 26.69 204.824 25.622 205.014 24.5869C205.203 23.5519 205.693 22.5954 206.422 21.8364C207.151 21.0775 208.087 20.5496 209.114 20.3185C210.14 20.0873 211.212 20.1631 212.196 20.5364C213.18 20.9096 214.033 21.5639 214.648 22.4179C215.262 23.2718 215.613 24.2877 215.655 25.3391C215.731 25.334 215.807 25.3304 215.884 25.3304C215.957 25.3304 216.03 25.3337 216.102 25.3383C216.056 24.0698 215.597 22.8511 214.794 21.8681C213.991 20.885 212.888 20.1915 211.654 19.8933C210.42 19.5951 209.123 19.7086 207.96 20.2163C206.796 20.7241 205.831 21.5984 205.211 22.7059C204.59 23.8134 204.349 25.0933 204.524 26.3506C204.699 27.6078 205.28 28.7734 206.179 29.6697C207.078 30.5659 208.245 31.1437 209.503 31.3148C210.761 31.4859 212.04 31.2411 213.145 30.6176C213.06 30.4963 212.982 30.3695 212.913 30.238C212.113 30.6867 211.211 30.9218 210.294 30.9207Z" fill="#309884"/>
<path d="M215.882 25.7773C215.307 25.7773 214.745 25.9478 214.267 26.2673C213.789 26.5867 213.416 27.0407 213.196 27.5718C212.976 28.103 212.919 28.6875 213.031 29.2514C213.143 29.8153 213.42 30.3333 213.826 30.7398C214.233 31.1463 214.751 31.4232 215.315 31.5354C215.879 31.6475 216.463 31.59 216.994 31.3699C217.525 31.1499 217.979 30.7773 218.299 30.2993C218.618 29.8212 218.789 29.2592 218.789 28.6843C218.788 27.9136 218.481 27.1747 217.936 26.6297C217.391 26.0848 216.652 25.7782 215.882 25.7773ZM215.882 31.144C215.395 31.144 214.92 30.9997 214.515 30.7295C214.111 30.4592 213.795 30.075 213.609 29.6256C213.423 29.1761 213.374 28.6816 213.469 28.2044C213.564 27.7273 213.799 27.289 214.143 26.945C214.487 26.601 214.925 26.3667 215.402 26.2718C215.879 26.1769 216.374 26.2256 216.823 26.4118C217.273 26.598 217.657 26.9132 217.927 27.3177C218.197 27.7222 218.342 28.1978 218.342 28.6843C218.342 29.3366 218.082 29.9623 217.621 30.4236C217.16 30.8848 216.534 31.144 215.882 31.144Z" fill="#309884"/>
<path d="M217.176 27.5192L215.321 29.3736L214.585 28.6372C214.543 28.5954 214.486 28.572 214.427 28.572C214.368 28.5721 214.311 28.5956 214.269 28.6375C214.227 28.6794 214.204 28.7362 214.204 28.7954C214.204 28.8546 214.227 28.9115 214.269 28.9534L215.163 29.8479C215.184 29.8686 215.209 29.8851 215.236 29.8963C215.263 29.9076 215.292 29.9134 215.321 29.9134C215.351 29.9134 215.38 29.9076 215.407 29.8963C215.434 29.8851 215.459 29.8686 215.479 29.8479L217.492 27.8354C217.534 27.7934 217.557 27.7366 217.557 27.6774C217.557 27.6182 217.533 27.5614 217.492 27.5196C217.45 27.4777 217.393 27.4542 217.334 27.4541C217.275 27.454 217.218 27.4774 217.176 27.5192Z" fill="#309884"/>
<defs>
<linearGradient id="paint0_linear_933_540" x1="118.033" y1="9.39365" x2="118.033" y2="86.513" gradientUnits="userSpaceOnUse">
<stop stop-color="#23CEA7"/>
<stop offset="0.60581" stop-color="#C0E421"/>
</linearGradient>
</defs>
</svg>
