<svg width="17" height="17" viewBox="0 0 17 17" fill="none" xmlns="http://www.w3.org/2000/svg">
<circle cx="8.27168" cy="8.27168" r="8.27168" fill="#767676"/>
<path d="M6.30557 10.2483C5.75847 10.2483 5.29213 10.0555 4.90653 9.66994C4.52093 9.28434 4.32812 8.81799 4.32812 8.2709C4.32812 7.72381 4.52093 7.25746 4.90653 6.87186C5.29213 6.48626 5.75847 6.29346 6.30557 6.29346H7.49203C7.60409 6.29346 7.69801 6.33136 7.77382 6.40716C7.84962 6.48296 7.88752 6.57689 7.88752 6.68895C7.88752 6.801 7.84962 6.89493 7.77382 6.97073C7.69801 7.04653 7.60409 7.08443 7.49203 7.08443H6.30557C5.97599 7.08443 5.69586 7.19978 5.46515 7.43049C5.23445 7.66119 5.1191 7.94132 5.1191 8.2709C5.1191 8.60047 5.23445 8.88061 5.46515 9.11131C5.69586 9.34201 5.97599 9.45736 6.30557 9.45736H7.49203C7.60409 9.45736 7.69801 9.49526 7.77382 9.57107C7.84962 9.64687 7.88752 9.7408 7.88752 9.85285C7.88752 9.96491 7.84962 10.0588 7.77382 10.1346C7.69801 10.2104 7.60409 10.2483 7.49203 10.2483H6.30557ZM7.09654 8.66639C6.98449 8.66639 6.89056 8.62849 6.81476 8.55268C6.73896 8.47688 6.70105 8.38295 6.70105 8.2709C6.70105 8.15884 6.73896 8.06491 6.81476 7.98911C6.89056 7.91331 6.98449 7.87541 7.09654 7.87541H9.46947C9.58153 7.87541 9.67546 7.91331 9.75126 7.98911C9.82706 8.06491 9.86496 8.15884 9.86496 8.2709C9.86496 8.38295 9.82706 8.47688 9.75126 8.55268C9.67546 8.62849 9.58153 8.66639 9.46947 8.66639H7.09654ZM9.07398 10.2483C8.96193 10.2483 8.868 10.2104 8.7922 10.1346C8.7164 10.0588 8.6785 9.96491 8.6785 9.85285C8.6785 9.7408 8.7164 9.64687 8.7922 9.57107C8.868 9.49526 8.96193 9.45736 9.07398 9.45736H10.2604C10.59 9.45736 10.8702 9.34201 11.1009 9.11131C11.3316 8.88061 11.4469 8.60047 11.4469 8.2709C11.4469 7.94132 11.3316 7.66119 11.1009 7.43049C10.8702 7.19978 10.59 7.08443 10.2604 7.08443H9.07398C8.96193 7.08443 8.868 7.04653 8.7922 6.97073C8.7164 6.89493 8.6785 6.801 8.6785 6.68895C8.6785 6.57689 8.7164 6.48296 8.7922 6.40716C8.868 6.33136 8.96193 6.29346 9.07398 6.29346H10.2604C10.8075 6.29346 11.2739 6.48626 11.6595 6.87186C12.0451 7.25746 12.2379 7.72381 12.2379 8.2709C12.2379 8.81799 12.0451 9.28434 11.6595 9.66994C11.2739 10.0555 10.8075 10.2483 10.2604 10.2483H9.07398Z" fill="white"/>
</svg>
