<svg width="8" height="11" viewBox="0 0 8 11" fill="none" xmlns="http://www.w3.org/2000/svg">
<path d="M2.53627 5.86894C2.22854 5.5612 2.07467 5.18753 2.07467 4.74791V1.58264C2.07467 1.14301 2.22854 0.769337 2.53627 0.461602C2.84401 0.153867 3.21769 0 3.65731 0C4.09693 0 4.47061 0.153867 4.77834 0.461602C5.08608 0.769337 5.23994 1.14301 5.23994 1.58264V4.74791C5.23994 5.18753 5.08608 5.5612 4.77834 5.86894C4.47061 6.17667 4.09693 6.33054 3.65731 6.33054C3.21769 6.33054 2.84401 6.17667 2.53627 5.86894ZM3.12976 9.49581V8.40116C2.32086 8.28685 1.62846 7.94395 1.05255 7.37244C0.476651 6.80094 0.127152 6.10634 0.00405804 5.28864C-0.0135268 5.13917 0.0260391 5.01168 0.122756 4.90617C0.219472 4.80066 0.342566 4.74791 0.492037 4.74791C0.641508 4.74791 0.7668 4.79846 0.867913 4.89958C0.969026 5.00069 1.03717 5.12598 1.07234 5.27545C1.19543 5.89092 1.50097 6.39648 1.98895 6.79214C2.47693 7.1878 3.03305 7.38563 3.65731 7.38563C4.29036 7.38563 4.84868 7.1856 5.33226 6.78555C5.81585 6.38549 6.11919 5.88213 6.24228 5.27545C6.27745 5.12598 6.34559 5.00069 6.4467 4.89958C6.54782 4.79846 6.67311 4.74791 6.82258 4.74791C6.97205 4.74791 7.09514 4.80066 7.19186 4.90617C7.28858 5.01168 7.32814 5.13917 7.31056 5.28864C7.18746 6.08875 6.84016 6.77895 6.26866 7.35925C5.69715 7.93955 5.00255 8.28685 4.18485 8.40116V9.49581C4.18485 9.64528 4.1343 9.77058 4.03318 9.87169C3.93207 9.9728 3.80678 10.0234 3.65731 10.0234C3.50784 10.0234 3.38254 9.9728 3.28143 9.87169C3.18032 9.77058 3.12976 9.64528 3.12976 9.49581ZM4.03318 5.12378C4.1343 5.02267 4.18485 4.89738 4.18485 4.74791V1.58264C4.18485 1.43316 4.1343 1.30787 4.03318 1.20676C3.93207 1.10565 3.80678 1.05509 3.65731 1.05509C3.50784 1.05509 3.38254 1.10565 3.28143 1.20676C3.18032 1.30787 3.12976 1.43316 3.12976 1.58264V4.74791C3.12976 4.89738 3.18032 5.02267 3.28143 5.12378C3.38254 5.2249 3.50784 5.27545 3.65731 5.27545C3.80678 5.27545 3.93207 5.2249 4.03318 5.12378Z" fill="#717171"/>
</svg>
