<svg width="228" height="50" viewBox="0 0 228 50" fill="none" xmlns="http://www.w3.org/2000/svg">
<style>
.ring-base{fill:none;stroke:rgba(255,255,255,.55);stroke-width:3.2}
.ring{fill:none;stroke-width:3.2;stroke-linecap:round;stroke-dasharray:132;stroke-dashoffset:132;transform-box:fill-box;transform-origin:center;animation:drawRing 3.6s ease-in-out infinite}
.ring.r2{animation-delay:.55s}
.ring.r3{animation-delay:1.1s}
.ring.r4{animation-delay:1.65s}
.ring.r5{animation-delay:2.2s}
@keyframes drawRing{0%{stroke-dashoffset:132}48%,78%{stroke-dashoffset:0}100%{stroke-dashoffset:-132}}
</style>
<path d="M24.74 49.48C38.41 49.48 49.49 38.41 49.49 24.74C49.49 11.07 38.41 0 24.74 0C11.07 0 0 11.08 0 24.74C0 38.4 11.08 49.48 24.75 49.48H24.74Z" fill="#C6D9D5"/>
<path d="M41.8614 14.86C36.4014 5.40002 24.3114 2.16002 14.8514 7.62002C5.40136 13.08 2.16135 25.17 7.62135 34.63C13.0814 44.09 25.1714 47.33 34.6314 41.87C44.0814 36.41 47.3214 24.32 41.8614 14.86Z" fill="white" fill-opacity="0.2"/>
<path d="M41.8614 14.86C36.4014 5.40002 24.3114 2.16002 14.8514 7.62002C5.40136 13.08 2.16135 25.17 7.62135 34.63C13.0814 44.09 25.1714 47.33 34.6314 41.87C44.0814 36.41 47.3214 24.32 41.8614 14.86Z" stroke="url(#paint0_linear_3741_11)" stroke-width="0.25" stroke-miterlimit="10"/>
<path d="M69.2188 49.48C82.8888 49.48 93.9688 38.41 93.9688 24.74C93.9688 11.07 82.8888 0 69.2188 0C55.5488 0 44.4688 11.07 44.4688 24.74C44.4688 38.41 55.5488 49.48 69.2188 49.48Z" fill="#C6D9D5"/>
<path d="M86.3379 14.86C80.8779 5.40002 68.7879 2.16002 59.3279 7.62002C49.8779 13.08 46.6379 25.17 52.0979 34.63C57.5579 44.09 69.6479 47.33 79.1079 41.87C88.5579 36.41 91.7979 24.32 86.3379 14.86Z" fill="white" fill-opacity="0.2"/>
<path d="M86.3379 14.86C80.8779 5.40002 68.7879 2.16002 59.3279 7.62002C49.8779 13.08 46.6379 25.17 52.0979 34.63C57.5579 44.09 69.6479 47.33 79.1079 41.87C88.5579 36.41 91.7979 24.32 86.3379 14.86Z" stroke="url(#paint1_linear_3741_11)" stroke-width="0.25" stroke-miterlimit="10"/>
<path d="M113.703 49.48C127.373 49.48 138.453 38.41 138.453 24.74C138.453 11.07 127.373 0 113.703 0C100.033 0 88.9531 11.07 88.9531 24.74C88.9531 38.41 100.033 49.48 113.703 49.48Z" fill="#C6D9D5"/>
<path d="M130.822 14.86C125.362 5.40002 113.272 2.16002 103.812 7.62002C94.3623 13.08 91.1223 25.17 96.5823 34.63C102.042 44.09 114.132 47.33 123.592 41.87C133.042 36.41 136.282 24.32 130.822 14.86Z" fill="white" fill-opacity="0.2"/>
<path d="M130.822 14.86C125.362 5.40002 113.272 2.16002 103.812 7.62002C94.3623 13.08 91.1223 25.17 96.5823 34.63C102.042 44.09 114.132 47.33 123.592 41.87C133.042 36.41 136.282 24.32 130.822 14.86Z" stroke="url(#paint2_linear_3741_11)" stroke-width="0.25" stroke-miterlimit="10"/>
<path d="M158.18 49.48C171.85 49.48 182.93 38.41 182.93 24.74C182.93 11.07 171.85 0 158.18 0C144.51 0 133.43 11.07 133.43 24.74C133.43 38.41 144.51 49.48 158.18 49.48Z" fill="#C6D9D5"/>
<path d="M175.299 14.86C169.839 5.40002 157.749 2.16002 148.289 7.62002C138.839 13.08 135.599 25.17 141.059 34.63C146.519 44.09 158.609 47.33 168.069 41.87C177.519 36.41 180.759 24.32 175.299 14.86Z" fill="white" fill-opacity="0.2"/>
<path d="M175.299 14.86C169.839 5.40002 157.749 2.16002 148.289 7.62002C138.839 13.08 135.599 25.17 141.059 34.63C146.519 44.09 158.609 47.33 168.069 41.87C177.519 36.41 180.759 24.32 175.299 14.86Z" stroke="url(#paint3_linear_3741_11)" stroke-width="0.25" stroke-miterlimit="10"/>
<path d="M202.664 49.48C216.334 49.48 227.414 38.41 227.414 24.74C227.414 11.07 216.324 0 202.664 0C189.004 0 177.914 11.07 177.914 24.74C177.914 38.41 188.994 49.48 202.664 49.48Z" fill="#C6D9D5"/>
<path d="M219.775 14.86C214.315 5.40002 202.225 2.16002 192.765 7.62002C183.315 13.08 180.075 25.17 185.535 34.63C190.995 44.09 203.085 47.33 212.545 41.87C221.995 36.41 225.235 24.32 219.775 14.86Z" fill="white" fill-opacity="0.2"/>
<path d="M219.775 14.86C214.315 5.40002 202.225 2.16002 192.765 7.62002C183.315 13.08 180.075 25.17 185.535 34.63C190.995 44.09 203.085 47.33 212.545 41.87C221.995 36.41 225.235 24.32 219.775 14.86Z" stroke="url(#paint4_linear_3741_11)" stroke-width="0.25" stroke-miterlimit="10"/>
<g clip-path="url(#clip0_3741_11)">
<path d="M200.988 24.2787L201.435 26.0888L200.988 26.5148L200.541 26.0888L200.988 24.2787C200.837 24.2784 200.687 24.2621 200.54 24.23L200.107 25.9816C200.088 26.0581 200.09 26.1383 200.112 26.2141C200.134 26.2898 200.175 26.3583 200.233 26.4127L200.68 26.8386C200.763 26.9178 200.873 26.962 200.988 26.962C201.103 26.962 201.213 26.9178 201.297 26.8386L201.744 26.4127C201.801 26.3583 201.843 26.2898 201.865 26.2141C201.887 26.1383 201.888 26.0581 201.87 25.9816L201.437 24.23C201.289 24.2621 201.139 24.2784 200.988 24.2787Z" fill="#309884"/>
<path d="M202.667 22.1541C202.667 21.8224 202.568 21.4982 202.384 21.2224C202.2 20.9466 201.938 20.7316 201.631 20.6047C201.325 20.4778 200.988 20.4446 200.662 20.5093C200.337 20.574 200.038 20.7337 199.804 20.9683C199.569 21.2028 199.409 21.5016 199.345 21.8269C199.28 22.1523 199.313 22.4895 199.44 22.7959C199.567 23.1024 199.782 23.3643 200.058 23.5486C200.334 23.7328 200.658 23.8312 200.99 23.8312C201.434 23.8307 201.861 23.6539 202.175 23.3395C202.489 23.0251 202.666 22.5988 202.667 22.1541ZM200.99 23.384C200.746 23.384 200.509 23.3119 200.306 23.1767C200.104 23.0416 199.946 22.8495 199.853 22.6248C199.76 22.4 199.736 22.1528 199.783 21.9142C199.831 21.6756 199.948 21.4565 200.12 21.2845C200.292 21.1125 200.511 20.9954 200.75 20.9479C200.988 20.9004 201.235 20.9248 201.46 21.0179C201.685 21.111 201.877 21.2686 202.012 21.4709C202.147 21.6731 202.219 21.9109 202.219 22.1541C202.219 22.4802 202.089 22.7928 201.859 23.0234C201.628 23.2539 201.316 23.3836 200.99 23.384Z" fill="#309884"/>
<path d="M204.441 25.1626C204.388 24.718 204.189 24.3036 203.875 23.9848C203.56 23.6661 203.149 23.4611 202.705 23.4023C202.587 23.5638 202.447 23.708 202.289 23.8306H202.443C202.858 23.8311 203.256 23.9962 203.55 24.2896C203.843 24.583 204.008 24.9809 204.009 25.3959V25.5933C204.14 25.437 204.284 25.2929 204.441 25.1626Z" fill="#309884"/>
<path d="M198.194 27.4084C198.135 27.4083 198.078 27.3847 198.036 27.3428C197.994 27.3009 197.971 27.2441 197.971 27.1848V25.3959C197.971 24.9809 198.136 24.583 198.43 24.2896C198.723 23.9962 199.121 23.8311 199.536 23.8306H199.69C199.532 23.708 199.393 23.5638 199.275 23.4023C198.791 23.4661 198.347 23.7033 198.024 24.07C197.702 24.4367 197.524 24.9078 197.523 25.3959V27.1848C197.524 27.3626 197.594 27.5332 197.72 27.6589C197.846 27.7847 198.016 27.8554 198.194 27.8556H203.228C203.227 27.8184 203.226 27.7813 203.226 27.7438C203.226 27.6306 203.231 27.5187 203.242 27.4084H198.194Z" fill="#309884"/>
<path d="M200.989 29.9802C199.937 29.9805 198.908 29.6713 198.03 29.0912C197.152 28.5112 196.464 27.6857 196.051 26.7177C195.639 25.7496 195.52 24.6816 195.709 23.6465C195.899 22.6114 196.389 21.6549 197.118 20.896C197.847 20.1371 198.783 19.6092 199.809 19.378C200.836 19.1469 201.908 19.2227 202.892 19.5959C203.876 19.9692 204.728 20.6235 205.343 21.4774C205.958 22.3314 206.308 23.3472 206.351 24.3987C206.426 24.3936 206.502 24.39 206.58 24.39C206.653 24.39 206.726 24.3932 206.798 24.3979C206.752 23.1294 206.292 21.9107 205.489 20.9276C204.686 19.9446 203.584 19.2511 202.35 18.9529C201.116 18.6547 199.818 18.7681 198.655 19.2759C197.492 19.7837 196.526 20.658 195.906 21.7655C195.286 22.8729 195.045 24.1529 195.22 25.4101C195.394 26.6674 195.975 27.833 196.874 28.7293C197.773 29.6255 198.941 30.2032 200.198 30.3743C201.456 30.5455 202.735 30.3006 203.841 29.6771C203.755 29.5559 203.677 29.4291 203.608 29.2975C202.808 29.7462 201.906 29.9813 200.989 29.9802Z" fill="#309884"/>
<path d="M206.579 24.8369C206.004 24.8369 205.442 25.0074 204.964 25.3268C204.486 25.6462 204.113 26.1002 203.893 26.6314C203.673 27.1626 203.616 27.7471 203.728 28.311C203.84 28.8748 204.117 29.3928 204.523 29.7993C204.93 30.2059 205.448 30.4827 206.012 30.5949C206.576 30.7071 207.16 30.6495 207.691 30.4295C208.222 30.2095 208.676 29.8369 208.996 29.3588C209.315 28.8808 209.486 28.3188 209.486 27.7438C209.485 26.9731 209.178 26.2343 208.633 25.6893C208.088 25.1443 207.35 24.8378 206.579 24.8369ZM206.579 30.2035C206.092 30.2035 205.617 30.0593 205.212 29.789C204.808 29.5187 204.493 29.1346 204.306 28.6851C204.12 28.2357 204.071 27.7411 204.166 27.264C204.261 26.7868 204.496 26.3486 204.84 26.0046C205.184 25.6606 205.622 25.4263 206.099 25.3314C206.576 25.2365 207.071 25.2852 207.52 25.4714C207.97 25.6575 208.354 25.9728 208.624 26.3773C208.894 26.7818 209.039 27.2574 209.039 27.7438C209.039 28.3962 208.779 29.0218 208.318 29.4831C207.857 29.9444 207.231 30.2035 206.579 30.2035Z" fill="#309884"/>
<path d="M207.871 26.5792L206.016 28.4336L205.28 27.6973C205.238 27.6555 205.181 27.632 205.122 27.6321C205.063 27.6321 205.006 27.6557 204.964 27.6976C204.922 27.7395 204.898 27.7962 204.898 27.8555C204.898 27.9147 204.922 27.9715 204.964 28.0135L205.858 28.9079C205.879 28.9286 205.903 28.9451 205.931 28.9564C205.958 28.9676 205.987 28.9734 206.016 28.9734C206.046 28.9734 206.075 28.9676 206.102 28.9564C206.129 28.9451 206.153 28.9286 206.174 28.9079L208.187 26.8954C208.228 26.8535 208.252 26.7966 208.252 26.7375C208.252 26.6783 208.228 26.6215 208.186 26.5797C208.144 26.5378 208.088 26.5142 208.029 26.5142C207.969 26.5141 207.913 26.5375 207.871 26.5792Z" fill="#309884"/>
</g>
<g clip-path="url(#clip1_3741_11)">
<path d="M26.5234 26.581C26.5234 27.1967 27.0085 27.9429 27.6054 27.9429C28.2024 27.9429 28.6875 27.1967 28.6875 26.581C28.6875 25.9841 28.2024 25.499 27.6054 25.499C27.0085 25.5177 26.5234 26.0027 26.5234 26.581ZM27.5868 25.8908C27.9786 25.8908 28.2957 26.2079 28.2957 26.5997C28.2957 27.0101 27.9412 27.5884 27.5868 27.5884C27.2323 27.5884 26.8779 27.0288 26.8779 26.5997C26.8965 26.2079 27.2137 25.8908 27.5868 25.8908Z" fill="#309884"/>
<path d="M27.6035 24.4549C27.4729 24.4549 27.3423 24.4736 27.2117 24.4922V18.877C27.2117 18.7651 27.1371 18.6904 27.0252 18.6904H18.9287C18.8355 18.6904 18.7422 18.7651 18.7422 18.877V29.3986C18.7422 29.5105 18.8168 29.5851 18.9287 29.5851H25.2716C25.8312 30.238 26.6707 30.6298 27.5848 30.6298C28.4056 30.6298 29.2078 30.3127 29.8421 29.6597C30.3831 29.0814 30.6816 28.3352 30.6816 27.5517C30.6816 25.8354 29.3011 24.4549 27.6035 24.4549ZM30.3085 27.5517C30.3085 28.0927 30.1593 28.5964 29.8608 29.0441L29.8421 28.8949C29.8235 28.671 29.6929 28.4658 29.5063 28.3539C29.1892 28.186 28.872 28.0367 28.5362 27.9435C28.4616 27.9248 28.3683 27.9621 28.331 28.0367L27.7154 29.1374H27.4729L26.8573 28.0554C26.8199 27.9808 26.7267 27.9435 26.652 27.9621C26.3349 28.0554 25.9991 28.186 25.682 28.3539C25.4768 28.4658 25.3462 28.671 25.3275 28.8949L25.3089 29.0255C25.029 28.5778 24.8611 28.0741 24.8611 27.5331C24.8611 26.0593 26.0551 24.828 27.5662 24.828C29.0959 24.828 30.3085 26.0406 30.3085 27.5517ZM19.1153 19.0635H26.8199V24.5669C25.8872 24.8094 25.141 25.4623 24.7679 26.3205H22.1375C22.0255 26.3205 21.9509 26.3951 21.9509 26.507C21.9509 26.6189 22.0255 26.6936 22.1375 26.6936H24.6373C24.5626 26.9734 24.5067 27.2532 24.5067 27.5517C24.5067 28.1487 24.6746 28.727 24.9917 29.212H19.1153V19.0635ZM25.6633 29.4545L25.7006 28.9135C25.7006 28.8202 25.7752 28.727 25.8499 28.671C26.0924 28.5404 26.3536 28.4285 26.5961 28.3539L27.193 29.4172C27.2304 29.4732 27.2863 29.5105 27.3609 29.5105H27.8273C27.902 29.5105 27.9579 29.4732 27.9952 29.4172L28.5922 28.3539C28.8347 28.4285 29.0959 28.5404 29.3384 28.671C29.4317 28.727 29.4877 28.8202 29.4877 28.9135L29.525 29.4545C28.4056 30.5552 26.708 30.4806 25.6633 29.4545Z" fill="#309884"/>
<path d="M22.1397 20.5367H25.8334C25.9454 20.5367 26.02 20.4621 26.02 20.3501C26.02 20.2382 25.9454 20.1636 25.8334 20.1636H22.1397C22.0278 20.1636 21.9531 20.2382 21.9531 20.3501C21.9531 20.4621 22.0278 20.5367 22.1397 20.5367Z" fill="#309884"/>
<path d="M20.567 19.7158C20.1939 19.7158 19.9141 19.9957 19.9141 20.3501C19.9141 20.7046 20.2126 21.003 20.567 21.003C20.9215 21.003 21.2199 20.7046 21.2199 20.3501C21.2199 19.9957 20.9215 19.7158 20.567 19.7158ZM20.567 20.6299C20.4178 20.6299 20.2872 20.4993 20.2872 20.3501C20.2872 20.2009 20.4178 20.0703 20.567 20.0703C20.7162 20.0703 20.8468 20.2009 20.8468 20.3501C20.8282 20.518 20.7162 20.6299 20.567 20.6299Z" fill="#309884"/>
<path d="M22.1397 22.5884H25.8334C25.9454 22.5884 26.02 22.5138 26.02 22.4019C26.02 22.29 25.9454 22.2153 25.8334 22.2153H22.1397C22.0278 22.2153 21.9531 22.29 21.9531 22.4019C21.9531 22.5138 22.0278 22.5884 22.1397 22.5884Z" fill="#309884"/>
<path d="M20.567 21.7495C20.2126 21.7495 19.9141 22.048 19.9141 22.4025C19.9141 22.7569 20.2126 23.0554 20.567 23.0554C20.9215 23.0554 21.2199 22.7569 21.2199 22.4025C21.2199 22.048 20.9215 21.7495 20.567 21.7495ZM20.567 22.6823C20.4178 22.6823 20.2872 22.5517 20.2872 22.4025C20.2872 22.2532 20.4178 22.1226 20.567 22.1226C20.7162 22.1226 20.8468 22.2532 20.8468 22.4025C20.8282 22.5517 20.7162 22.6823 20.567 22.6823Z" fill="#309884"/>
<path d="M22.1397 24.6412H25.8334C25.9454 24.6412 26.02 24.5665 26.02 24.4546C26.02 24.3427 25.9454 24.2681 25.8334 24.2681H22.1397C22.0278 24.2681 21.9531 24.3427 21.9531 24.4546C21.9531 24.5479 22.0278 24.6412 22.1397 24.6412Z" fill="#309884"/>
<path d="M20.567 23.8018C20.2126 23.8018 19.9141 24.1002 19.9141 24.4547C19.9141 24.8091 20.2126 25.1076 20.567 25.1076C20.9215 25.1076 21.2199 24.8091 21.2199 24.4547C21.2199 24.1002 20.9215 23.8018 20.567 23.8018ZM20.567 24.7159C20.4178 24.7159 20.2872 24.5853 20.2872 24.436C20.2872 24.2868 20.4178 24.1562 20.567 24.1562C20.7162 24.1562 20.8468 24.2868 20.8468 24.436C20.8282 24.6039 20.7162 24.7159 20.567 24.7159Z" fill="#309884"/>
<path d="M20.567 25.854C20.2126 25.854 19.9141 26.1525 19.9141 26.5069C19.9141 26.8614 20.2126 27.1599 20.567 27.1599C20.9215 27.1599 21.2199 26.8614 21.2199 26.5069C21.2013 26.1338 20.9215 25.854 20.567 25.854ZM20.567 26.7681C20.4178 26.7681 20.2872 26.6375 20.2872 26.4883C20.2872 26.339 20.4178 26.2085 20.567 26.2085C20.7162 26.2085 20.8468 26.339 20.8468 26.4883C20.8282 26.6562 20.7162 26.7681 20.567 26.7681Z" fill="#309884"/>
</g>
<g clip-path="url(#clip2_3741_11)">
<path d="M68.8819 28.3581C66.7113 28.3581 64.9453 26.5787 64.9453 24.392C64.9453 22.2047 66.7113 20.4253 68.8819 20.4253C71.0521 20.4253 72.818 22.2047 72.818 24.392C72.818 26.5787 71.0521 28.3581 68.8819 28.3581ZM68.8819 20.9213C67.9687 20.9223 67.0932 21.2883 66.4475 21.9389C65.8017 22.5896 65.4385 23.4718 65.4375 24.392C65.4387 25.3121 65.8019 26.1941 66.4477 26.8447C67.0934 27.4952 67.9688 27.8612 68.8819 27.8622C69.795 27.861 70.6703 27.495 71.3159 26.8445C71.9615 26.194 72.3247 25.312 72.3258 24.392C72.3248 23.4719 71.9617 22.5898 71.3161 21.9391C70.6705 21.2885 69.7951 20.9224 68.8819 20.9213Z" fill="#309884"/>
<path d="M72.8909 28.7808L71.3182 27.1966C71.2953 27.1736 71.2772 27.1463 71.2649 27.1162C71.2525 27.0861 71.2462 27.0539 71.2462 27.0214C71.2462 26.9888 71.2525 26.9566 71.2649 26.9265C71.2772 26.8965 71.2953 26.8691 71.3182 26.8461C71.341 26.8231 71.3681 26.8049 71.398 26.7924C71.4278 26.78 71.4598 26.7735 71.4921 26.7735C71.5244 26.7735 71.5564 26.78 71.5862 26.7924C71.6161 26.8049 71.6432 26.8231 71.666 26.8461L73.2388 28.4309C73.2616 28.4539 73.2797 28.4813 73.292 28.5113C73.3043 28.5414 73.3105 28.5737 73.3105 28.6062C73.3104 28.6388 73.304 28.671 73.2916 28.701C73.2792 28.731 73.261 28.7583 73.2381 28.7813C73.2153 28.8043 73.1882 28.8225 73.1583 28.8349C73.1285 28.8473 73.0965 28.8537 73.0642 28.8536C73.0319 28.8536 72.9999 28.8471 72.9701 28.8346C72.9403 28.8221 72.9137 28.8038 72.8909 28.7808ZM68.8823 24.7638C68.491 24.7634 68.1158 24.6065 67.8391 24.3277C67.5623 24.0489 67.4067 23.6708 67.4062 23.2764C67.4067 22.8821 67.5623 22.504 67.8391 22.2252C68.1158 21.9463 68.491 21.7895 68.8823 21.7891C69.2737 21.7895 69.6489 21.9463 69.9256 22.2252C70.2024 22.504 70.358 22.8821 70.3585 23.2764C70.358 23.6708 70.2024 24.0489 69.9256 24.3277C69.6489 24.6065 69.2737 24.7634 68.8823 24.7638ZM68.8823 22.2845C68.6214 22.2846 68.3712 22.3891 68.1866 22.575C68.002 22.7609 67.8982 23.013 67.8979 23.2759C67.8979 23.8227 68.3391 24.2678 68.8823 24.2678C69.1433 24.2676 69.3935 24.1629 69.5779 23.977C69.7624 23.791 69.8661 23.5388 69.8662 23.2759C69.866 23.0131 69.7622 22.7611 69.5778 22.5752C69.3933 22.3893 69.1432 22.2848 68.8823 22.2845Z" fill="#309884"/>
<path d="M70.6043 26.4986C70.572 26.4986 70.54 26.4922 70.5101 26.4797C70.4803 26.4672 70.4531 26.4489 70.4303 26.4259C70.4075 26.4028 70.3894 26.3755 70.377 26.3453C70.3647 26.3152 70.3584 26.283 70.3585 26.2504C70.3581 25.856 70.2024 25.478 69.9257 25.1991C69.6489 24.9203 69.2737 24.7634 68.8824 24.763C68.491 24.7634 68.1158 24.9203 67.8391 25.1991C67.5624 25.478 67.4067 25.856 67.4063 26.2504C67.4063 26.3161 67.3803 26.3792 67.3342 26.4257C67.288 26.4722 67.2254 26.4984 67.1602 26.4984C67.0949 26.4984 67.0323 26.4722 66.9861 26.4257C66.94 26.3792 66.9141 26.3161 66.9141 26.2504C66.9146 25.7246 67.1222 25.2205 67.4912 24.8488C67.8603 24.477 68.3606 24.268 68.8824 24.2676C69.4041 24.2681 69.9043 24.4772 70.2732 24.849C70.6421 25.2207 70.8496 25.7247 70.8502 26.2504C70.8502 26.283 70.8439 26.3152 70.8316 26.3453C70.8193 26.3755 70.8012 26.4028 70.7783 26.4259C70.7555 26.4489 70.7284 26.4672 70.6985 26.4797C70.6687 26.4922 70.6366 26.4986 70.6043 26.4986Z" fill="#309884"/>
<path fill-rule="evenodd" clip-rule="evenodd" d="M71.8784 19.1864H66.3679C65.8086 19.1864 65.4184 19.1864 65.1151 19.2118C64.8172 19.2362 64.6465 19.2821 64.5166 19.3481C64.2388 19.4907 64.013 19.7183 63.8715 19.9982C63.8054 20.1291 63.7603 20.3011 63.7362 20.6013C63.711 20.9069 63.711 21.3001 63.711 21.8637V27.4162C63.711 27.9797 63.711 28.3724 63.7362 28.6785C63.7603 28.9787 63.806 29.1507 63.8715 29.2816C64.013 29.5615 64.2388 29.7891 64.5166 29.9317C64.6465 29.9982 64.8172 30.0436 65.1151 30.068C65.4184 30.0934 65.8086 30.0934 66.3679 30.0934H71.8784C72.4377 30.0934 72.8274 30.0934 73.1312 30.068C73.4291 30.0436 73.5997 29.9977 73.7296 29.9317C74.0074 29.7891 74.2334 29.5615 74.3749 29.2816C74.4409 29.1507 74.4859 28.9787 74.5101 28.6785C74.5353 28.3724 74.5353 27.9797 74.5353 27.4162V21.8637C74.5353 21.3001 74.5353 20.9069 74.5101 20.6013C74.4859 20.3011 74.4404 20.1291 74.3749 19.9982C74.2334 19.7183 74.0074 19.4907 73.7296 19.3481C73.5997 19.2816 73.4291 19.2362 73.1312 19.2118C72.8274 19.1864 72.4377 19.1864 71.8784 19.1864ZM63.4335 19.7732C63.2187 20.1973 63.2188 20.7527 63.2188 21.8637V27.4162C63.2188 28.5271 63.2187 29.082 63.4335 29.5066C63.6219 29.8798 63.923 30.1826 64.2933 30.373C64.7142 30.5894 65.2654 30.5894 66.3679 30.5894H71.8784C72.9809 30.5894 73.5316 30.5894 73.9529 30.373C74.3231 30.1829 74.6242 29.8796 74.8128 29.5066C75.0275 29.0825 75.0275 28.5271 75.0275 27.4162V21.8637C75.0275 20.7527 75.0275 20.1978 74.8128 19.7732C74.6242 19.4002 74.3231 19.0969 73.9529 18.9068C73.5321 18.6904 72.9809 18.6904 71.8784 18.6904H66.3679C65.2654 18.6904 64.7147 18.6904 64.2933 18.9068C63.923 19.0966 63.6224 19.4 63.4335 19.7732Z" fill="#309884"/>
</g>
<g clip-path="url(#clip3_3741_11)">
<path fill-rule="evenodd" clip-rule="evenodd" d="M109.281 19.0008C109.134 19.0008 109.014 19.121 109.014 19.2684L109.014 30.0124C109.014 30.1598 109.134 30.28 109.281 30.28H117.694C117.842 30.28 117.962 30.1598 117.962 30.0124L117.962 19.2684C117.962 19.121 117.842 19.0009 117.694 19.0009L109.281 19.0008ZM117.694 30.5904H109.281C108.963 30.5904 108.703 30.3309 108.703 30.0124L108.703 19.2684C108.703 18.9499 108.963 18.6904 109.281 18.6904L117.694 18.6904C118.013 18.6904 118.272 18.9499 118.272 19.2684L118.272 30.0124C118.272 30.3309 118.013 30.5904 117.694 30.5904Z" fill="#309884"/>
<path fill-rule="evenodd" clip-rule="evenodd" d="M109.904 22.2084H111.57V21.7718C111.57 21.5312 111.375 21.3353 111.134 21.3353H110.341C110.1 21.3353 109.904 21.5312 109.904 21.7718L109.904 22.2084ZM111.726 22.5188H109.749C109.663 22.5188 109.594 22.4493 109.594 22.3636L109.594 21.7718C109.594 21.3598 109.929 21.0249 110.341 21.0249L111.134 21.0249C111.546 21.0249 111.881 21.3598 111.881 21.7718V22.3636C111.881 22.4492 111.811 22.5188 111.726 22.5188Z" fill="#309884"/>
<path fill-rule="evenodd" clip-rule="evenodd" d="M110.743 19.7849C110.526 19.7849 110.349 19.9614 110.349 20.1785C110.349 20.3954 110.526 20.5718 110.743 20.5718C110.96 20.5718 111.136 20.3954 111.136 20.1785C111.136 19.9614 110.96 19.7849 110.743 19.7849ZM110.743 20.8821C110.355 20.8821 110.039 20.5664 110.039 20.1785C110.039 19.7903 110.355 19.4746 110.743 19.4746C111.131 19.4746 111.447 19.7903 111.447 20.1785C111.447 20.5664 111.131 20.8822 110.743 20.8821Z" fill="#309884"/>
<path fill-rule="evenodd" clip-rule="evenodd" d="M117.218 20.4686H112.819C112.734 20.4686 112.664 20.3991 112.664 20.3134C112.664 20.2277 112.734 20.1582 112.819 20.1582H117.218C117.304 20.1582 117.373 20.2277 117.373 20.3134C117.373 20.3991 117.304 20.4686 117.218 20.4686Z" fill="#309884"/>
<path fill-rule="evenodd" clip-rule="evenodd" d="M117.218 21.8348H112.819C112.734 21.8348 112.664 21.7653 112.664 21.6796C112.664 21.5939 112.734 21.5244 112.819 21.5244H117.218C117.304 21.5244 117.373 21.5939 117.373 21.6796C117.373 21.7653 117.304 21.8348 117.218 21.8348Z" fill="#309884"/>
<path fill-rule="evenodd" clip-rule="evenodd" d="M109.904 25.8514H111.57V25.4149C111.57 25.1743 111.375 24.9784 111.134 24.9784L110.341 24.9784C110.1 24.9784 109.904 25.1743 109.904 25.4149L109.904 25.8514ZM111.726 26.1618H109.749C109.663 26.1618 109.594 26.0923 109.594 26.0066L109.594 25.4149C109.594 25.0032 109.929 24.668 110.341 24.668L111.134 24.668C111.546 24.668 111.881 25.0032 111.881 25.4149V26.0066C111.881 26.0923 111.811 26.1618 111.726 26.1618Z" fill="#309884"/>
<path fill-rule="evenodd" clip-rule="evenodd" d="M110.743 23.4285C110.526 23.4285 110.349 23.605 110.349 23.8218C110.349 24.0387 110.526 24.2154 110.743 24.2154C110.96 24.2154 111.136 24.0387 111.136 23.8218C111.136 23.6049 110.96 23.4285 110.743 23.4285ZM110.743 24.5257C110.355 24.5257 110.039 24.21 110.039 23.8218C110.039 23.4339 110.355 23.1182 110.743 23.1182C111.131 23.1182 111.447 23.4339 111.447 23.8218C111.447 24.21 111.131 24.5257 110.743 24.5257Z" fill="#309884"/>
<path fill-rule="evenodd" clip-rule="evenodd" d="M117.218 24.1122H112.819C112.734 24.1122 112.664 24.0427 112.664 23.957C112.664 23.871 112.734 23.8018 112.819 23.8018H117.218C117.304 23.8018 117.373 23.871 117.373 23.957C117.373 24.0426 117.304 24.1122 117.218 24.1122Z" fill="#309884"/>
<path fill-rule="evenodd" clip-rule="evenodd" d="M117.218 25.4794H112.819C112.734 25.4794 112.664 25.4098 112.664 25.3242C112.664 25.2385 112.734 25.1689 112.819 25.1689H117.218C117.304 25.1689 117.373 25.2385 117.373 25.3242C117.373 25.4098 117.304 25.4794 117.218 25.4794Z" fill="#309884"/>
<path fill-rule="evenodd" clip-rule="evenodd" d="M109.904 29.4949H111.57V29.0584C111.57 28.8175 111.375 28.622 111.134 28.622L110.341 28.6219C110.1 28.6219 109.904 28.8175 109.904 29.0584L109.904 29.4949ZM111.726 29.8054H109.749C109.663 29.8054 109.594 29.7358 109.594 29.6502L109.594 29.0584C109.594 28.6465 109.929 28.3115 110.341 28.3115L111.134 28.3115C111.546 28.3115 111.881 28.6465 111.881 29.0584V29.6501C111.881 29.7358 111.811 29.8054 111.726 29.8054Z" fill="#309884"/>
<path fill-rule="evenodd" clip-rule="evenodd" d="M110.743 27.072C110.526 27.072 110.349 27.2485 110.349 27.4656C110.349 27.6825 110.526 27.8589 110.743 27.8589C110.96 27.8589 111.136 27.6825 111.136 27.4656C111.136 27.2485 110.96 27.072 110.743 27.072ZM110.743 28.1693C110.355 28.1693 110.039 27.8535 110.039 27.4656C110.039 27.0774 110.355 26.7617 110.743 26.7617C111.131 26.7617 111.447 27.0774 111.447 27.4656C111.447 27.8535 111.131 28.1693 110.743 28.1693Z" fill="#309884"/>
<path fill-rule="evenodd" clip-rule="evenodd" d="M117.218 27.7557H112.819C112.734 27.7557 112.664 27.6862 112.664 27.6005C112.664 27.5148 112.734 27.4453 112.819 27.4453L117.218 27.4453C117.304 27.4453 117.373 27.5148 117.373 27.6005C117.373 27.6862 117.304 27.7557 117.218 27.7557Z" fill="#309884"/>
<path fill-rule="evenodd" clip-rule="evenodd" d="M117.218 29.1224H112.819C112.734 29.1224 112.664 29.0529 112.664 28.9672C112.664 28.8815 112.734 28.812 112.819 28.812H117.218C117.304 28.812 117.373 28.8815 117.373 28.9672C117.373 29.0529 117.304 29.1224 117.218 29.1224Z" fill="#309884"/>
</g>
<g clip-path="url(#clip4_3741_11)">
<path d="M157.688 29.2671C157.688 29.1171 157.81 28.9958 157.96 28.9958H158.502C158.652 28.9958 158.773 29.1171 158.773 29.2671C158.773 29.417 158.652 29.5382 158.502 29.5382H157.96C157.81 29.5383 157.688 29.417 157.688 29.2671ZM164.197 22.4871V28.1823V29.5382C164.197 30.1364 163.711 30.6231 163.112 30.6231C159.48 30.6231 157.06 30.6231 153.62 30.6231C153.022 30.6231 152.536 30.1365 152.536 29.5382V28.1823V24.1144H151.451C151.301 24.1144 151.18 23.9932 151.18 23.8433V18.9617C151.18 18.8118 151.301 18.6904 151.451 18.6904H158.231C158.381 18.6904 158.502 18.8118 158.502 18.9617V21.4025H163.112C163.711 21.4023 164.197 21.8889 164.197 22.4871ZM163.655 28.4536H153.078V29.5383C153.078 29.8374 153.321 30.0809 153.62 30.0809H157.146H159.316H163.112C163.411 30.0809 163.655 29.8374 163.655 29.5383L163.655 28.4536ZM151.722 23.572H152.536H152.807H153.078H157.96V21.9447V21.6734V21.4023V19.2328H151.722V23.572ZM153.078 27.911H163.655V22.4871C163.655 22.1881 163.411 21.9447 163.112 21.9447H158.502V23.8431C158.502 23.993 158.381 24.1142 158.231 24.1142H153.078V27.911ZM156.061 26.0128C156.061 25.8637 155.939 25.7417 155.79 25.7417C155.641 25.7417 155.519 25.8637 155.519 26.0128C155.519 26.1619 155.641 26.2841 155.79 26.2841C155.939 26.2839 156.061 26.1619 156.061 26.0128ZM154.976 26.0128C154.976 25.8637 154.854 25.7417 154.705 25.7417H153.892C153.742 25.7417 153.62 25.8637 153.62 26.0128C153.62 26.1619 153.742 26.2841 153.892 26.2841H154.705C154.854 26.2839 154.976 26.1619 154.976 26.0128ZM158.773 25.7415H156.875C156.726 25.7415 156.603 25.8635 156.603 26.0126C156.603 26.1617 156.726 26.2839 156.875 26.2839H158.773C158.922 26.2839 159.044 26.1617 159.044 26.0126C159.044 25.8635 158.922 25.7415 158.773 25.7415ZM158.773 26.8263H154.976C154.826 26.8263 154.705 26.9475 154.705 27.0974C154.705 27.2473 154.826 27.3687 154.976 27.3687H158.773C158.923 27.3687 159.044 27.2473 159.044 27.0974C159.044 26.9476 158.923 26.8263 158.773 26.8263ZM158.773 24.6568H153.892C153.742 24.6568 153.62 24.7781 153.62 24.928C153.62 25.078 153.742 25.1993 153.892 25.1993H158.773C158.923 25.1993 159.044 25.078 159.044 24.928C159.044 24.778 158.923 24.6568 158.773 24.6568ZM163.112 27.0976C163.112 27.2475 162.991 27.3688 162.841 27.3688C162.691 27.3688 162.57 27.2475 162.57 27.0976C162.57 26.6489 162.205 26.2841 161.756 26.2841H161.485H161.214C160.765 26.2841 160.4 26.6489 160.4 27.0976C160.4 27.2475 160.279 27.3688 160.129 27.3688C159.979 27.3688 159.858 27.2475 159.858 27.0976C159.858 26.5248 160.216 26.0349 160.719 25.8366C160.604 25.6575 160.536 25.4375 160.536 25.1993C160.536 24.6009 160.962 24.1144 161.485 24.1144C162.009 24.1144 162.435 24.6009 162.435 25.1993C162.435 25.4377 162.366 25.6575 162.252 25.8366C162.755 26.0349 163.112 26.5248 163.112 27.0976ZM161.078 25.1991C161.078 25.4932 161.265 25.7415 161.485 25.7415C161.706 25.7415 161.892 25.4932 161.892 25.1991C161.892 24.9051 161.706 24.6566 161.485 24.6566C161.265 24.6568 161.078 24.9051 161.078 25.1991ZM152.536 23.0296C152.386 23.0296 152.264 22.9083 152.264 22.7585C152.264 22.1856 152.622 21.6957 153.125 21.4975C153.011 21.3182 152.942 21.0985 152.942 20.8601C152.942 20.2617 153.368 19.7752 153.891 19.7752C154.415 19.7752 154.841 20.2617 154.841 20.8601C154.841 21.0578 154.793 21.2427 154.712 21.4025C154.696 21.4352 154.677 21.4669 154.658 21.4974C154.771 21.5421 154.877 21.6016 154.973 21.6736C155.076 21.7509 155.167 21.8419 155.245 21.9449C155.416 22.1718 155.519 22.453 155.519 22.7585C155.519 22.9083 155.397 23.0296 155.247 23.0296C155.097 23.0296 154.976 22.9083 154.976 22.7585C154.976 22.3099 154.611 21.9449 154.163 21.9449H153.891H153.62C153.172 21.9449 152.807 22.3099 152.807 22.7585C152.807 22.9083 152.685 23.0296 152.536 23.0296ZM153.485 20.8599C153.485 21.154 153.671 21.4023 153.892 21.4023C154.112 21.4023 154.298 21.1538 154.298 20.8599C154.298 20.5659 154.112 20.3176 153.892 20.3176C153.671 20.3176 153.485 20.5659 153.485 20.8599ZM156.061 20.8599C156.21 20.8599 156.333 20.7378 156.333 20.5887C156.333 20.4396 156.455 20.3176 156.604 20.3176C156.753 20.3176 156.875 20.4396 156.875 20.5887V20.7947C156.875 20.936 156.818 21.0767 156.715 21.177L156.65 21.2448C156.602 21.2924 156.559 21.3457 156.52 21.4022C156.474 21.4707 156.434 21.5443 156.405 21.6216C156.399 21.6386 156.394 21.6558 156.391 21.6733C156.381 21.7256 156.388 21.7791 156.409 21.8277C156.43 21.8764 156.465 21.9166 156.507 21.9445C156.524 21.9554 156.541 21.9647 156.56 21.9715C156.59 21.985 156.623 21.9905 156.658 21.9905C156.712 21.9905 156.764 21.9736 156.807 21.9445C156.853 21.9139 156.889 21.8698 156.91 21.8171C156.93 21.7659 156.958 21.7164 156.992 21.6733C157.005 21.657 157.018 21.6413 157.032 21.6273L157.1 21.5621C157.148 21.5129 157.192 21.4591 157.23 21.4022C157.35 21.2232 157.417 21.0105 157.417 20.7946V20.5885C157.417 20.1409 157.051 19.7749 156.604 19.7749C156.156 19.7749 155.79 20.1409 155.79 20.5885C155.79 20.7378 155.912 20.8599 156.061 20.8599ZM156.604 22.525C156.455 22.525 156.333 22.647 156.333 22.7961C156.333 22.9452 156.455 23.0674 156.604 23.0674C156.753 23.0674 156.875 22.9452 156.875 22.7961C156.875 22.647 156.753 22.525 156.604 22.525Z" fill="#309884"/>
</g>
<circle class="ring-base" cx="24.74" cy="24.74" r="21"/>
<circle class="ring r1" cx="24.74" cy="24.74" r="21" stroke="url(#animatedRing1)"/>
<circle class="ring-base" cx="69.2188" cy="24.74" r="21"/>
<circle class="ring r2" cx="69.2188" cy="24.74" r="21" stroke="url(#animatedRing2)"/>
<circle class="ring-base" cx="113.703" cy="24.74" r="21"/>
<circle class="ring r3" cx="113.703" cy="24.74" r="21" stroke="url(#animatedRing3)"/>
<circle class="ring-base" cx="158.18" cy="24.74" r="21"/>
<circle class="ring r4" cx="158.18" cy="24.74" r="21" stroke="url(#animatedRing4)"/>
<circle class="ring-base" cx="202.664" cy="24.74" r="21"/>
<circle class="ring r5" cx="202.664" cy="24.74" r="21" stroke="url(#animatedRing5)"/>
<defs>
<linearGradient id="animatedRing1" x1="3" y1="7" x2="47" y2="43" gradientUnits="userSpaceOnUse">
<stop stop-color="#23CEA7"/>
<stop offset="1" stop-color="#C0E421"/>
</linearGradient>
<linearGradient id="animatedRing2" x1="48" y1="7" x2="91" y2="43" gradientUnits="userSpaceOnUse">
<stop stop-color="#23CEA7"/>
<stop offset="1" stop-color="#C0E421"/>
</linearGradient>
<linearGradient id="animatedRing3" x1="92" y1="7" x2="136" y2="43" gradientUnits="userSpaceOnUse">
<stop stop-color="#23CEA7"/>
<stop offset="1" stop-color="#C0E421"/>
</linearGradient>
<linearGradient id="animatedRing4" x1="137" y1="7" x2="180" y2="43" gradientUnits="userSpaceOnUse">
<stop stop-color="#23CEA7"/>
<stop offset="1" stop-color="#C0E421"/>
</linearGradient>
<linearGradient id="animatedRing5" x1="181" y1="7" x2="225" y2="43" gradientUnits="userSpaceOnUse">
<stop stop-color="#23CEA7"/>
<stop offset="1" stop-color="#C0E421"/>
</linearGradient>
<linearGradient id="paint0_linear_3741_11" x1="4.85135" y1="24.74" x2="44.6414" y2="24.74" gradientUnits="userSpaceOnUse">
<stop stop-color="#D1E1DD"/>
<stop offset="0.51" stop-color="white"/>
<stop offset="1" stop-color="#D1E1DD"/>
</linearGradient>
<linearGradient id="paint1_linear_3741_11" x1="49.3179" y1="-1.25998" x2="89.1179" y2="-1.25998" gradientUnits="userSpaceOnUse">
<stop stop-color="#D1E1DD"/>
<stop offset="0.51" stop-color="white"/>
<stop offset="1" stop-color="#D1E1DD"/>
</linearGradient>
<linearGradient id="paint2_linear_3741_11" x1="93.8023" y1="-1.25998" x2="133.602" y2="-1.25998" gradientUnits="userSpaceOnUse">
<stop stop-color="#D1E1DD"/>
<stop offset="0.51" stop-color="white"/>
<stop offset="1" stop-color="#D1E1DD"/>
</linearGradient>
<linearGradient id="paint3_linear_3741_11" x1="138.279" y1="-1.25998" x2="178.079" y2="-1.25998" gradientUnits="userSpaceOnUse">
<stop stop-color="#D1E1DD"/>
<stop offset="0.51" stop-color="white"/>
<stop offset="1" stop-color="#D1E1DD"/>
</linearGradient>
<linearGradient id="paint4_linear_3741_11" x1="182.765" y1="-1.25998" x2="222.555" y2="-1.25998" gradientUnits="userSpaceOnUse">
<stop stop-color="#D1E1DD"/>
<stop offset="0.51" stop-color="white"/>
<stop offset="1" stop-color="#D1E1DD"/>
</linearGradient>
<clipPath id="clip0_3741_11">
<rect width="15" height="12" fill="white" transform="translate(195.164 18.79)"/>
</clipPath>
<clipPath id="clip1_3741_11">
<rect width="12" height="12" fill="white" transform="translate(18.7422 18.6904)"/>
</clipPath>
<clipPath id="clip2_3741_11">
<rect width="12" height="12" fill="white" transform="translate(63.2188 18.6904)"/>
</clipPath>
<clipPath id="clip3_3741_11">
<rect width="10" height="12" fill="white" transform="translate(108.703 18.6904)"/>
</clipPath>
<clipPath id="clip4_3741_11">
<rect width="14" height="12" fill="white" transform="translate(151.18 18.6904)"/>
</clipPath>
</defs>
</svg>
