<svg width="40" height="16" viewBox="0 0 40 16" fill="none" xmlns="http://www.w3.org/2000/svg">
<path d="M6.53613 12.6499H5.92676V13.6167H5.34961V12.6499H3.33984V12.1841L5.33789 9.31592H5.92676V12.1431H6.53613V12.6499ZM5.34961 12.1431V10.9126C5.34961 10.8149 5.35059 10.7222 5.35254 10.6343C5.35449 10.5444 5.35742 10.4595 5.36133 10.3794C5.36523 10.2993 5.36914 10.2251 5.37305 10.1567C5.37695 10.0864 5.37988 10.0229 5.38184 9.96631H5.3584C5.32129 10.0444 5.2793 10.1255 5.23242 10.2095C5.1875 10.2935 5.13965 10.3716 5.08887 10.4438L3.90234 12.1431H5.34961ZM7.06641 13.2827C7.06641 13.1343 7.10352 13.0298 7.17773 12.9692C7.25391 12.9067 7.3457 12.8755 7.45312 12.8755C7.5625 12.8755 7.65527 12.9067 7.73145 12.9692C7.80762 13.0298 7.8457 13.1343 7.8457 13.2827C7.8457 13.4272 7.80762 13.5327 7.73145 13.5991C7.65527 13.6655 7.5625 13.6987 7.45312 13.6987C7.3457 13.6987 7.25391 13.6655 7.17773 13.5991C7.10352 13.5327 7.06641 13.4272 7.06641 13.2827ZM9.97559 9.27197C10.2217 9.27197 10.4424 9.31104 10.6377 9.38916C10.835 9.46729 10.9893 9.58252 11.1006 9.73486C11.2139 9.88525 11.2705 10.0728 11.2705 10.2974C11.2705 10.4692 11.2334 10.6206 11.1592 10.7515C11.0869 10.8804 10.9883 10.9937 10.8633 11.0913C10.7402 11.187 10.6025 11.2729 10.4502 11.3491C10.626 11.4312 10.7861 11.5249 10.9307 11.6304C11.0752 11.7358 11.1904 11.8599 11.2764 12.0024C11.3623 12.145 11.4053 12.314 11.4053 12.5093C11.4053 12.7476 11.3457 12.9546 11.2266 13.1304C11.1094 13.3042 10.9443 13.439 10.7314 13.5347C10.5186 13.6284 10.2695 13.6753 9.98438 13.6753C9.67578 13.6753 9.41406 13.6304 9.19922 13.5405C8.98438 13.4487 8.82031 13.3179 8.70703 13.1479C8.5957 12.9761 8.54004 12.77 8.54004 12.5298C8.54004 12.3325 8.58105 12.1616 8.66309 12.0171C8.74512 11.8706 8.85352 11.7456 8.98828 11.6421C9.12305 11.5366 9.27051 11.4468 9.43066 11.3726C9.29199 11.2944 9.16504 11.2056 9.0498 11.106C8.93652 11.0063 8.8457 10.8901 8.77734 10.7573C8.71094 10.6226 8.67773 10.4673 8.67773 10.2915C8.67773 10.0728 8.73438 9.88818 8.84766 9.73779C8.96289 9.58545 9.11914 9.47021 9.31641 9.39209C9.51367 9.31201 9.7334 9.27197 9.97559 9.27197ZM9.1084 12.5181C9.1084 12.7212 9.17969 12.8882 9.32227 13.019C9.4668 13.1499 9.68359 13.2153 9.97266 13.2153C10.25 13.2153 10.4629 13.1509 10.6113 13.022C10.7617 12.8911 10.8369 12.7192 10.8369 12.5063C10.8369 12.3716 10.8008 12.2534 10.7285 12.1519C10.6582 12.0503 10.5596 11.9595 10.4326 11.8794C10.3076 11.7974 10.1631 11.7231 9.99902 11.6567L9.89941 11.6187C9.7334 11.689 9.5918 11.7671 9.47461 11.853C9.35742 11.937 9.2666 12.0337 9.20215 12.1431C9.13965 12.2505 9.1084 12.3755 9.1084 12.5181ZM9.96973 9.73779C9.75879 9.73779 9.58594 9.78857 9.45117 9.89014C9.31836 9.9917 9.25195 10.1372 9.25195 10.3267C9.25195 10.4634 9.28418 10.5796 9.34863 10.6753C9.41504 10.769 9.50391 10.8511 9.61523 10.9214C9.72656 10.9897 9.85156 11.0532 9.99023 11.1118C10.123 11.0532 10.2422 10.9897 10.3477 10.9214C10.4551 10.8511 10.5391 10.7681 10.5996 10.6724C10.6621 10.5747 10.6934 10.4595 10.6934 10.3267C10.6934 10.1353 10.626 9.98975 10.4912 9.89014C10.3584 9.78857 10.1846 9.73779 9.96973 9.73779ZM15.0088 9.3335C15.3701 9.3335 15.668 9.37842 15.9023 9.46826C16.1387 9.55615 16.3145 9.69092 16.4297 9.87256C16.5449 10.0522 16.6025 10.2808 16.6025 10.5581C16.6025 10.7769 16.5625 10.9614 16.4824 11.1118C16.4023 11.2622 16.2969 11.3853 16.166 11.481C16.0371 11.5767 15.8984 11.6519 15.75 11.7065L16.9482 13.6167H16.2598L15.2168 11.8647H14.4287V13.6167H13.8281V9.3335H15.0088ZM14.9707 9.84326H14.4287V11.3638H15.0117C15.3496 11.3638 15.5967 11.2983 15.7529 11.1675C15.9092 11.0347 15.9873 10.8394 15.9873 10.5815C15.9873 10.314 15.9043 10.1245 15.7383 10.0132C15.5723 9.8999 15.3164 9.84326 14.9707 9.84326ZM18.7588 10.3325C19.1572 10.3325 19.4551 10.4214 19.6523 10.5991C19.8496 10.7749 19.9482 11.0532 19.9482 11.4341V13.6167H19.5264L19.4121 13.1479H19.3887C19.2988 13.2651 19.2051 13.3628 19.1074 13.4409C19.0098 13.519 18.8965 13.5776 18.7676 13.6167C18.6406 13.6558 18.4854 13.6753 18.3018 13.6753C18.1064 13.6753 17.9326 13.6401 17.7803 13.5698C17.6279 13.4995 17.5078 13.394 17.4199 13.2534C17.334 13.1108 17.291 12.9302 17.291 12.7114C17.291 12.3833 17.417 12.1343 17.6689 11.9644C17.9209 11.7944 18.3027 11.7017 18.8145 11.686L19.3711 11.6626V11.481C19.3711 11.229 19.3145 11.0513 19.2012 10.9478C19.0898 10.8442 18.9336 10.7925 18.7324 10.7925C18.5664 10.7925 18.4072 10.8169 18.2549 10.8657C18.1025 10.9126 17.9561 10.9692 17.8154 11.0356L17.6279 10.6079C17.7803 10.5298 17.9531 10.4644 18.1465 10.4116C18.3418 10.3589 18.5459 10.3325 18.7588 10.3325ZM19.3652 12.0493L18.9141 12.0698C18.541 12.0835 18.2783 12.146 18.126 12.2573C17.9756 12.3667 17.9004 12.52 17.9004 12.7173C17.9004 12.8892 17.9521 13.0151 18.0557 13.0952C18.1592 13.1753 18.2959 13.2153 18.4658 13.2153C18.7275 13.2153 18.9424 13.1421 19.1104 12.9956C19.2803 12.8472 19.3652 12.6284 19.3652 12.3394V12.0493ZM22.0576 13.1978C22.1416 13.1978 22.2266 13.1909 22.3125 13.1772C22.3984 13.1616 22.4727 13.1421 22.5352 13.1187V13.5698C22.4688 13.5991 22.3799 13.6235 22.2686 13.6431C22.1592 13.6646 22.0469 13.6753 21.9316 13.6753C21.7559 13.6753 21.5967 13.645 21.4541 13.5845C21.3115 13.5239 21.1973 13.4204 21.1113 13.2739C21.0273 13.1274 20.9854 12.9243 20.9854 12.6646V10.8423H20.5371V10.5698L21.0059 10.353L21.2139 9.65576H21.5771V10.3882H22.5117V10.8423H21.5771V12.6558C21.5771 12.8374 21.6201 12.9731 21.7061 13.063C21.7939 13.1528 21.9111 13.1978 22.0576 13.1978ZM23.7773 10.3882V13.6167H23.1885V10.3882H23.7773ZM23.4873 9.1665C23.5811 9.1665 23.6611 9.19385 23.7275 9.24854C23.7959 9.30322 23.8301 9.39209 23.8301 9.51514C23.8301 9.63818 23.7959 9.72803 23.7275 9.78467C23.6611 9.83936 23.5811 9.8667 23.4873 9.8667C23.3916 9.8667 23.3105 9.83936 23.2441 9.78467C23.1797 9.72803 23.1475 9.63818 23.1475 9.51514C23.1475 9.39209 23.1797 9.30322 23.2441 9.24854C23.3105 9.19385 23.3916 9.1665 23.4873 9.1665ZM26.3877 10.3296C26.7607 10.3296 27.0469 10.4233 27.2461 10.6108C27.4473 10.7983 27.5479 11.0991 27.5479 11.5132V13.6167H26.9648V11.5923C26.9648 11.3345 26.9082 11.1411 26.7949 11.0122C26.6816 10.8813 26.5078 10.8159 26.2734 10.8159C25.9395 10.8159 25.7051 10.9146 25.5703 11.1118C25.4375 11.3091 25.3711 11.5952 25.3711 11.9702V13.6167H24.7822V10.3882H25.248L25.333 10.8423H25.3652C25.4336 10.729 25.5205 10.6343 25.626 10.5581C25.7314 10.4819 25.8486 10.4253 25.9775 10.3882C26.1084 10.3491 26.2451 10.3296 26.3877 10.3296ZM29.4463 15.0581C29.0146 15.0581 28.6826 14.979 28.4502 14.8208C28.2197 14.6626 28.1045 14.4419 28.1045 14.1587C28.1045 13.9575 28.168 13.7866 28.2949 13.646C28.4219 13.5073 28.5996 13.4136 28.8281 13.3647C28.7422 13.3257 28.668 13.2661 28.6055 13.186C28.5449 13.104 28.5146 13.0122 28.5146 12.9106C28.5146 12.7915 28.5479 12.689 28.6143 12.603C28.6826 12.5151 28.7842 12.4302 28.9189 12.3481C28.749 12.2778 28.6123 12.1616 28.5088 11.9995C28.4053 11.8354 28.3535 11.644 28.3535 11.4253C28.3535 11.1929 28.4023 10.9946 28.5 10.8306C28.5996 10.6665 28.7422 10.5415 28.9277 10.4556C29.1133 10.3696 29.3389 10.3267 29.6045 10.3267C29.6631 10.3267 29.7236 10.3296 29.7861 10.3354C29.8486 10.3394 29.9082 10.3462 29.9648 10.356C30.0215 10.3657 30.0674 10.3755 30.1025 10.3853H31.2158V10.7339L30.6416 10.8218C30.6982 10.896 30.7441 10.9839 30.7793 11.0854C30.8145 11.187 30.832 11.2983 30.832 11.4194C30.832 11.7476 30.7197 12.0073 30.4951 12.1987C30.2725 12.3882 29.9639 12.4829 29.5693 12.4829C29.4775 12.481 29.3848 12.4731 29.291 12.4595C29.207 12.5083 29.1436 12.562 29.1006 12.6206C29.0576 12.6772 29.0361 12.7427 29.0361 12.8169C29.0361 12.8735 29.0547 12.9194 29.0918 12.9546C29.1309 12.9897 29.1865 13.0161 29.2588 13.0337C29.3311 13.0493 29.4189 13.0571 29.5225 13.0571H30.085C30.4365 13.0571 30.7061 13.1313 30.8936 13.2798C31.0811 13.4282 31.1748 13.645 31.1748 13.9302C31.1748 14.2915 31.0264 14.5698 30.7295 14.7651C30.4326 14.9604 30.0049 15.0581 29.4463 15.0581ZM29.4668 14.6274C29.7188 14.6274 29.9287 14.6021 30.0967 14.5513C30.2666 14.5005 30.3945 14.4282 30.4805 14.3345C30.5664 14.2407 30.6094 14.1294 30.6094 14.0005C30.6094 13.8833 30.5811 13.7935 30.5244 13.731C30.4697 13.6704 30.3877 13.6294 30.2783 13.6079C30.1689 13.5864 30.0342 13.5757 29.874 13.5757H29.3408C29.2041 13.5757 29.085 13.5972 28.9834 13.6401C28.8818 13.6831 28.8027 13.7446 28.7461 13.8247C28.6895 13.9067 28.6611 14.0073 28.6611 14.1265C28.6611 14.2886 28.7305 14.4126 28.8691 14.4985C29.0098 14.5845 29.209 14.6274 29.4668 14.6274ZM29.5957 12.0815C29.8125 12.0815 29.9746 12.0249 30.082 11.9116C30.1895 11.7964 30.2432 11.6323 30.2432 11.4194C30.2432 11.1909 30.1885 11.019 30.0791 10.9038C29.9697 10.7886 29.8076 10.731 29.5928 10.731C29.3838 10.731 29.2236 10.7905 29.1123 10.9097C29.0029 11.0269 28.9482 11.1987 28.9482 11.4253C28.9482 11.6343 29.0039 11.7964 29.1152 11.9116C29.2266 12.0249 29.3867 12.0815 29.5957 12.0815ZM33.9551 12.7144C33.9551 12.9233 33.9033 13.1001 33.7998 13.2446C33.6982 13.3872 33.5498 13.4946 33.3545 13.5669C33.1592 13.6392 32.9248 13.6753 32.6514 13.6753C32.4248 13.6753 32.2295 13.6577 32.0654 13.6226C31.9014 13.5894 31.7529 13.5405 31.6201 13.4761V12.9546C31.7627 13.0229 31.9277 13.0835 32.1152 13.1362C32.3027 13.189 32.4863 13.2153 32.666 13.2153C32.918 13.2153 33.0996 13.1753 33.2109 13.0952C33.3242 13.0151 33.3809 12.9067 33.3809 12.77C33.3809 12.6899 33.3584 12.6196 33.3135 12.5591C33.2686 12.4966 33.1895 12.4351 33.0762 12.3745C32.9648 12.312 32.8047 12.2407 32.5957 12.1606C32.3906 12.0806 32.2148 12.0005 32.0684 11.9204C31.9238 11.8403 31.8135 11.7437 31.7373 11.6304C31.6611 11.5171 31.623 11.3706 31.623 11.1909C31.623 10.9116 31.7344 10.6987 31.957 10.5522C32.1816 10.4038 32.4775 10.3296 32.8447 10.3296C33.04 10.3296 33.2236 10.3491 33.3955 10.3882C33.5693 10.4272 33.7354 10.4819 33.8936 10.5522L33.7031 11.0063C33.5625 10.9458 33.418 10.896 33.2695 10.8569C33.1211 10.8159 32.9697 10.7954 32.8154 10.7954C32.6143 10.7954 32.46 10.8276 32.3525 10.8921C32.2471 10.9565 32.1943 11.0454 32.1943 11.1587C32.1943 11.2466 32.2188 11.3198 32.2676 11.3784C32.3184 11.437 32.4023 11.4946 32.5195 11.5513C32.6367 11.606 32.7949 11.6714 32.9941 11.7476C33.1914 11.8218 33.3613 11.8989 33.5039 11.979C33.6484 12.0591 33.7598 12.1567 33.8379 12.272C33.916 12.3872 33.9551 12.5347 33.9551 12.7144Z" fill="black"/>
<path d="M1.17788 5.9886L1.67829 3.82531L0 2.37028L2.21719 2.17781L3.07942 0.137695L3.94166 2.17781L6.15885 2.37028L4.48056 3.82531L4.98097 5.9886L3.07942 4.84152L1.17788 5.9886Z" fill="url(#paint0_linear_2636_24616)"/>
<path d="M9.49038 5.9886L9.99079 3.82531L8.3125 2.37028L10.5297 2.17781L11.3919 0.137695L12.2542 2.17781L14.4713 2.37028L12.7931 3.82531L13.2935 5.9886L11.3919 4.84152L9.49038 5.9886Z" fill="url(#paint1_linear_2636_24616)"/>
<path d="M17.8048 5.9886L18.3052 3.82531L16.627 2.37028L18.8441 2.17781L19.7064 0.137695L20.5686 2.17781L22.7858 2.37028L21.1075 3.82531L21.6079 5.9886L19.7064 4.84152L17.8048 5.9886Z" fill="url(#paint2_linear_2636_24616)"/>
<path d="M25.7677 5.85091L26.2681 3.68761L24.5898 2.23258L26.807 2.04012L27.6693 0L28.5315 2.04012L30.7487 2.23258L29.0704 3.68761L29.5708 5.85091L27.6693 4.70382L25.7677 5.85091Z" fill="url(#paint3_linear_2636_24616)"/>
<path d="M36.7061 2.09863L36.7412 2.18164L36.8311 2.18945L38.6943 2.35059L37.2842 3.57422L37.2168 3.63379L37.2363 3.72168L37.6572 5.53906L36.0596 4.5752L35.9814 4.52832L35.9043 4.5752L34.3057 5.53906L34.7266 3.72168L34.7471 3.63379L34.6787 3.57422L33.2676 2.35059L35.1328 2.18945L35.2227 2.18164L35.2578 2.09863L35.9814 0.384766L36.7061 2.09863Z" stroke="#111111" stroke-width="0.3"/>
<defs>
<linearGradient id="paint0_linear_2636_24616" x1="3.07922" y1="1.20861" x2="3.07922" y2="10.0005" gradientUnits="userSpaceOnUse">
<stop stop-color="#23CEA7"/>
<stop offset="0.60581" stop-color="#C0E421"/>
</linearGradient>
<linearGradient id="paint1_linear_2636_24616" x1="11.3917" y1="1.20861" x2="11.3917" y2="10.0005" gradientUnits="userSpaceOnUse">
<stop stop-color="#23CEA7"/>
<stop offset="0.60581" stop-color="#C0E421"/>
</linearGradient>
<linearGradient id="paint2_linear_2636_24616" x1="19.7062" y1="1.20861" x2="19.7062" y2="10.0005" gradientUnits="userSpaceOnUse">
<stop stop-color="#23CEA7"/>
<stop offset="0.60581" stop-color="#C0E421"/>
</linearGradient>
<linearGradient id="paint3_linear_2636_24616" x1="27.6691" y1="1.07091" x2="27.6691" y2="9.86281" gradientUnits="userSpaceOnUse">
<stop stop-color="#23CEA7"/>
<stop offset="0.60581" stop-color="#C0E421"/>
</linearGradient>
</defs>
</svg>
