<svg width="10" height="12" viewBox="0 0 10 12" fill="none" xmlns="http://www.w3.org/2000/svg">
<path fill-rule="evenodd" clip-rule="evenodd" d="M0.577991 0.31042C0.430606 0.31042 0.310421 0.430614 0.310421 0.578006L0.310444 11.322C0.310444 11.4694 0.430591 11.5896 0.577992 11.5896L8.99121 11.5896C9.1389 11.5896 9.25877 11.4694 9.25877 11.322L9.25882 0.577995C9.25882 0.430594 9.13886 0.310425 8.9912 0.310425L0.577991 0.31042ZM8.99121 11.9H0.577991C0.259513 11.9 0 11.6405 0 11.322L3.05284e-05 0.577998C3.05284e-05 0.259489 0.259489 1.52642e-05 0.577992 1.52642e-05L8.99121 0C9.30999 0 9.56918 0.259505 9.56918 0.577999L9.56923 11.322C9.56923 11.6405 9.30996 11.9 8.99121 11.9Z" fill="#309884"/>
<path fill-rule="evenodd" clip-rule="evenodd" d="M1.20497 3.51792H2.87125V3.0814C2.87125 2.84077 2.67562 2.64489 2.43473 2.64489L1.64149 2.64489C1.40086 2.64489 1.20494 2.84079 1.20494 3.08141L1.20497 3.51792ZM3.02646 3.82833H1.04977C0.964107 3.82833 0.894531 3.75882 0.894531 3.67313L0.894562 3.0814C0.894562 2.6694 1.22974 2.33448 1.64146 2.33448L2.43474 2.33447C2.84677 2.33447 3.18167 2.66941 3.18167 3.08141L3.18167 3.67313C3.18167 3.75881 3.11214 3.82834 3.02646 3.82833Z" fill="#309884"/>
<path fill-rule="evenodd" clip-rule="evenodd" d="M2.0435 1.09451C1.82663 1.09451 1.65018 1.27096 1.65018 1.48809C1.65019 1.70494 1.82663 1.88139 2.04349 1.88139C2.26062 1.88138 2.43706 1.70494 2.43706 1.48809C2.43712 1.27096 2.26061 1.09451 2.0435 1.09451ZM2.0435 2.19172C1.65558 2.19172 1.33984 1.87601 1.33984 1.48809C1.33986 1.0999 1.65557 0.78418 2.04349 0.78418C2.43173 0.784172 2.7474 1.0999 2.7474 1.48809C2.7474 1.87601 2.43167 2.19173 2.0435 2.19172Z" fill="#309884"/>
<path fill-rule="evenodd" clip-rule="evenodd" d="M8.51869 1.77819H4.1201C4.03437 1.77819 3.96484 1.70867 3.96484 1.62298C3.9649 1.53728 4.03436 1.46777 4.12005 1.46777H8.5187C8.60436 1.46777 8.67386 1.5373 8.67386 1.62298C8.67391 1.70866 8.60433 1.77819 8.51869 1.77819Z" fill="#309884"/>
<path fill-rule="evenodd" clip-rule="evenodd" d="M8.51869 3.1444H4.1201C4.03437 3.1444 3.96484 3.07488 3.96484 2.98919C3.9649 2.9035 4.03436 2.83398 4.12005 2.83398H8.5187C8.60436 2.83398 8.67386 2.90351 8.67386 2.98919C8.67391 3.07488 8.60433 3.1444 8.51869 3.1444Z" fill="#309884"/>
<path fill-rule="evenodd" clip-rule="evenodd" d="M1.20497 7.16099H2.87125V6.72447C2.87125 6.48385 2.67562 6.28797 2.43473 6.28797L1.64149 6.28795C1.40086 6.28795 1.20494 6.48386 1.20494 6.72448L1.20497 7.16099ZM3.02646 7.4714H1.04977C0.964107 7.4714 0.894531 7.40189 0.894531 7.3162L0.894562 6.72447C0.894562 6.31275 1.22974 5.97755 1.64146 5.97755L2.43474 5.97754C2.84677 5.97754 3.18167 6.31275 3.18167 6.72448L3.18167 7.3162C3.18167 7.40189 3.11214 7.47141 3.02646 7.4714Z" fill="#309884"/>
<path fill-rule="evenodd" clip-rule="evenodd" d="M2.0435 4.73805C1.82663 4.73805 1.65018 4.91452 1.65018 5.13138C1.65019 5.34822 1.82663 5.52494 2.04349 5.52494C2.26062 5.52494 2.43706 5.34823 2.43706 5.13138C2.43712 4.91451 2.26061 4.73807 2.0435 4.73805ZM2.0435 5.83527C1.65558 5.83527 1.33984 5.51956 1.33984 5.13138C1.33986 4.74345 1.65557 4.42773 2.04349 4.42773C2.43173 4.42772 2.7474 4.74345 2.7474 5.13138C2.7474 5.51956 2.43167 5.83528 2.0435 5.83527Z" fill="#309884"/>
<path fill-rule="evenodd" clip-rule="evenodd" d="M8.51869 5.42174H4.1201C4.03437 5.42174 3.96484 5.35223 3.96484 5.26653C3.9649 5.18058 4.03436 5.11133 4.12005 5.11133H8.5187C8.60436 5.11133 8.67386 5.18058 8.67386 5.26653C8.67391 5.35222 8.60433 5.42174 8.51869 5.42174Z" fill="#309884"/>
<path fill-rule="evenodd" clip-rule="evenodd" d="M8.51869 6.78893H4.1201C4.03437 6.78893 3.96484 6.71942 3.96484 6.63373C3.9649 6.54805 4.03436 6.47852 4.12005 6.47852L8.5187 6.47852C8.60436 6.47852 8.67386 6.54805 8.67386 6.63373C8.67391 6.71941 8.60433 6.78894 8.51869 6.78893Z" fill="#309884"/>
<path fill-rule="evenodd" clip-rule="evenodd" d="M1.20497 10.8045H2.87125V10.368C2.87125 10.1271 2.67562 9.93152 2.43473 9.93152L1.64149 9.93151C1.40086 9.93151 1.20494 10.1271 1.20494 10.368L1.20497 10.8045ZM3.02646 11.115H1.04977C0.964107 11.115 0.894531 11.0454 0.894531 10.9598L0.894562 10.368C0.894562 9.95603 1.22974 9.62111 1.64146 9.62111L2.43474 9.62109C2.84677 9.62109 3.18167 9.95604 3.18167 10.368L3.18167 10.9597C3.18167 11.0454 3.11214 11.115 3.02646 11.115Z" fill="#309884"/>
<path fill-rule="evenodd" clip-rule="evenodd" d="M2.0435 8.38162C1.82663 8.38162 1.65018 8.55807 1.65018 8.7752C1.65019 8.99204 1.82663 9.1685 2.04349 9.1685C2.26062 9.16849 2.43706 8.99206 2.43706 8.7752C2.43712 8.55806 2.26061 8.38162 2.0435 8.38162ZM2.0435 9.47884C1.65558 9.47884 1.33984 9.16312 1.33984 8.7752C1.33986 8.387 1.65557 8.07129 2.04349 8.07129C2.43173 8.07129 2.7474 8.38701 2.7474 8.7752C2.7474 9.16311 2.43167 9.47884 2.0435 9.47884Z" fill="#309884"/>
<path fill-rule="evenodd" clip-rule="evenodd" d="M8.51869 9.0653H4.1201C4.03437 9.0653 3.96484 8.99579 3.96484 8.9101C3.9649 8.82441 4.03436 8.7549 4.12005 8.7549L8.5187 8.75488C8.60436 8.75488 8.67386 8.82441 8.67386 8.9101C8.67391 8.99577 8.60433 9.06531 8.51869 9.0653Z" fill="#309884"/>
<path fill-rule="evenodd" clip-rule="evenodd" d="M8.51869 10.432H4.1201C4.03437 10.432 3.96484 10.3625 3.96484 10.2768C3.9649 10.1911 4.03436 10.1216 4.12005 10.1216L8.5187 10.1216C8.60436 10.1216 8.67386 10.1911 8.67386 10.2768C8.67391 10.3625 8.60433 10.432 8.51869 10.432Z" fill="#309884"/>
</svg>
