<svg width="14" height="12" viewBox="0 0 14 12" fill="none" xmlns="http://www.w3.org/2000/svg">
<path d="M6.50872 10.5767C6.50872 10.4267 6.63008 10.3054 6.77999 10.3054H7.32237C7.47229 10.3054 7.59364 10.4267 7.59364 10.5767C7.59364 10.7266 7.47229 10.8478 7.32237 10.8478H6.77999C6.63008 10.8479 6.50872 10.7266 6.50872 10.5767ZM13.0174 3.79666V9.49189V10.8478C13.0174 11.446 12.5309 11.9327 11.9325 11.9327C8.30046 11.9327 5.8804 11.9327 2.44079 11.9327C1.84241 11.9327 1.35603 11.4461 1.35603 10.8478V9.49189V5.42396H0.271271C0.121354 5.42396 0 5.30277 0 5.15285V0.271271C0 0.121354 0.121354 0 0.271271 0H7.0511C7.20102 0 7.32237 0.121354 7.32237 0.271271V2.71206H11.9327C12.5309 2.7119 13.0174 3.19844 13.0174 3.79666ZM12.4751 9.76316H1.89841V10.8479C1.89841 11.147 2.14176 11.3905 2.44079 11.3905H5.96634H8.13602H11.9327C12.2317 11.3905 12.4752 11.147 12.4752 10.8479L12.4751 9.76316ZM0.54238 4.88158H1.35603H1.62714H1.89841H6.77999V3.25428V2.98301V2.7119V0.54238H0.54238V4.88158ZM1.89841 9.22062H12.4752V3.79666C12.4752 3.49763 12.2317 3.25428 11.9327 3.25428H7.32237V5.15269C7.32237 5.30261 7.20102 5.4238 7.0511 5.4238H1.89841V9.22062ZM4.88158 7.32237C4.88158 7.17326 4.75942 7.05126 4.61031 7.05126C4.4612 7.05126 4.3392 7.17326 4.3392 7.32237C4.3392 7.47148 4.46136 7.59364 4.61031 7.59364C4.75942 7.59348 4.88158 7.47148 4.88158 7.32237ZM3.79666 7.32237C3.79666 7.17326 3.6745 7.05126 3.52539 7.05126H2.7119C2.56279 7.05126 2.44063 7.17326 2.44063 7.32237C2.44063 7.47148 2.56279 7.59364 2.7119 7.59364H3.52539C3.67466 7.59348 3.79666 7.47148 3.79666 7.32237ZM7.59348 7.0511H5.69507C5.54596 7.0511 5.4238 7.1731 5.4238 7.32221C5.4238 7.47132 5.54596 7.59348 5.69507 7.59348H7.59348C7.74259 7.59348 7.86459 7.47132 7.86459 7.32221C7.86459 7.1731 7.74259 7.0511 7.59348 7.0511ZM7.59348 8.13586H3.79666C3.64674 8.13586 3.52539 8.25705 3.52539 8.40697C3.52539 8.55689 3.64674 8.67824 3.79666 8.67824H7.59348C7.7434 8.67824 7.86459 8.55689 7.86459 8.40697C7.86475 8.25722 7.7434 8.13586 7.59348 8.13586ZM7.59348 5.96634H2.7119C2.56198 5.96634 2.44063 6.0877 2.44063 6.23761C2.44063 6.38753 2.56198 6.50888 2.7119 6.50888H7.59348C7.7434 6.50888 7.86459 6.38753 7.86459 6.23761C7.86475 6.08753 7.7434 5.96634 7.59348 5.96634ZM11.9327 8.40713C11.9327 8.55705 11.8115 8.6784 11.6616 8.6784C11.5117 8.6784 11.3903 8.55705 11.3903 8.40713C11.3903 7.95851 11.0254 7.59364 10.5768 7.59364H10.3055H10.0344C9.58581 7.59364 9.22078 7.95851 9.22078 8.40713C9.22078 8.55705 9.09943 8.6784 8.94951 8.6784C8.7996 8.6784 8.6784 8.55705 8.6784 8.40713C8.6784 7.83441 9.03601 7.34448 9.53918 7.14615C9.42476 6.96703 9.3565 6.74707 9.3565 6.50888C9.3565 5.91051 9.78237 5.42396 10.3057 5.42396C10.829 5.42396 11.2549 5.91051 11.2549 6.50888C11.2549 6.74723 11.1865 6.96703 11.0721 7.14615C11.5751 7.34448 11.9327 7.83441 11.9327 8.40713ZM9.89872 6.50872C9.89872 6.80275 10.0849 7.0511 10.3055 7.0511C10.5261 7.0511 10.7124 6.80275 10.7124 6.50872C10.7124 6.2147 10.5263 5.96618 10.3055 5.96618C10.0849 5.96634 9.89872 6.2147 9.89872 6.50872ZM1.35587 4.3392C1.20595 4.3392 1.0846 4.21785 1.0846 4.06809C1.0846 3.49521 1.4422 3.00528 1.94537 2.80711C1.83096 2.62782 1.76253 2.40803 1.76253 2.16968C1.76253 1.5713 2.1884 1.08476 2.71174 1.08476C3.23508 1.08476 3.66094 1.5713 3.66094 2.16968C3.66094 2.36737 3.61366 2.5523 3.53249 2.71206C3.51587 2.74482 3.49763 2.77645 3.47811 2.80695C3.59139 2.85165 3.69693 2.9112 3.79295 2.98317C3.89607 3.06047 3.98757 3.15148 4.06503 3.25444C4.23608 3.48133 4.33888 3.76261 4.33888 4.06809C4.33888 4.21785 4.21753 4.3392 4.06761 4.3392C3.91769 4.3392 3.7965 4.21785 3.7965 4.06809C3.7965 3.61947 3.43147 3.25444 2.98285 3.25444H2.71174H2.44047C1.99185 3.25444 1.62682 3.61947 1.62682 4.06809C1.62714 4.21785 1.50579 4.3392 1.35587 4.3392ZM2.30507 2.16952C2.30507 2.46354 2.4913 2.7119 2.7119 2.7119C2.9325 2.7119 3.11873 2.46338 3.11873 2.16952C3.11873 1.8755 2.9325 1.62714 2.7119 1.62714C2.4913 1.62714 2.30507 1.8755 2.30507 2.16952ZM4.88158 2.16952C5.03069 2.16952 5.15285 2.04736 5.15285 1.89825C5.15285 1.74914 5.27485 1.62714 5.42396 1.62714C5.57307 1.62714 5.69523 1.74914 5.69523 1.89825V2.10432C5.69523 2.24553 5.63827 2.38625 5.53515 2.48662L5.46995 2.5544C5.42235 2.602 5.37926 2.65526 5.34069 2.71174C5.29389 2.78032 5.2542 2.85391 5.22579 2.93121C5.21902 2.94815 5.21418 2.96542 5.21111 2.98285C5.20175 3.03513 5.2082 3.08871 5.22886 3.13728C5.25016 3.18602 5.28486 3.2262 5.32762 3.25412C5.34424 3.26493 5.36167 3.27429 5.38071 3.28107C5.41057 3.29462 5.44284 3.30011 5.47835 3.30011C5.53241 3.30011 5.58388 3.28317 5.62729 3.25412C5.67296 3.22346 5.7096 3.1794 5.73057 3.12663C5.7501 3.07548 5.7785 3.02593 5.81223 2.98285C5.82498 2.96655 5.83837 2.9509 5.85257 2.93686L5.92035 2.87166C5.96876 2.82244 6.01217 2.7687 6.05026 2.71174C6.17016 2.53277 6.23761 2.32008 6.23761 2.10416V1.89809C6.23761 1.45044 5.87129 1.08444 5.42396 1.08444C4.97631 1.08444 4.61031 1.45044 4.61031 1.89809C4.61031 2.04736 4.73247 2.16952 4.88158 2.16952ZM5.42396 3.83458C5.27485 3.83458 5.15285 3.95658 5.15285 4.10569C5.15285 4.2548 5.27485 4.37696 5.42396 4.37696C5.57307 4.37696 5.69523 4.2548 5.69523 4.10569C5.69523 3.95658 5.57307 3.83458 5.42396 3.83458Z" fill="#309884"/>
</svg>
