<svg width="15" height="12" viewBox="0 0 15 12" fill="none" xmlns="http://www.w3.org/2000/svg">
<path d="M5.82022 5.48861L6.26744 7.29879L5.82022 7.72471L5.373 7.29879L5.82022 5.48861C5.66937 5.48838 5.51897 5.47207 5.37157 5.43994L4.93883 7.19152C4.91992 7.26809 4.92159 7.3483 4.94367 7.42401C4.96575 7.49972 5.00746 7.56825 5.06457 7.62265L5.51179 8.04857C5.59495 8.12777 5.70539 8.17194 5.82022 8.17194C5.93506 8.17194 6.04549 8.12777 6.12865 8.04857L6.57587 7.62265C6.63298 7.56825 6.6747 7.49973 6.69678 7.42401C6.71886 7.3483 6.72053 7.26809 6.70161 7.19152L6.26887 5.43994C6.12148 5.47207 5.97108 5.48838 5.82022 5.48861Z" fill="#309884"/>
<path d="M7.49869 3.36409C7.49869 3.0324 7.40033 2.70815 7.21605 2.43236C7.03177 2.15656 6.76985 1.94161 6.4634 1.81467C6.15695 1.68774 5.81975 1.65453 5.49443 1.71924C5.16911 1.78395 4.87028 1.94367 4.63574 2.17822C4.40119 2.41276 4.24147 2.71159 4.17676 3.03691C4.11205 3.36223 4.14526 3.69943 4.27219 4.00588C4.39913 4.31233 4.61408 4.57425 4.88988 4.75853C5.16567 4.94281 5.48992 5.04117 5.82161 5.04117C6.26625 5.04068 6.69254 4.86384 7.00695 4.54943C7.32136 4.23502 7.4982 3.80873 7.49869 3.36409ZM5.82161 4.59395C5.57837 4.59395 5.34059 4.52182 5.13834 4.38668C4.93609 4.25154 4.77846 4.05946 4.68537 3.83474C4.59229 3.61001 4.56793 3.36273 4.61538 3.12416C4.66284 2.88559 4.77997 2.66645 4.95197 2.49445C5.12397 2.32245 5.34311 2.20532 5.58168 2.15786C5.82025 2.11041 6.06753 2.13477 6.29226 2.22785C6.51698 2.32094 6.70906 2.47857 6.8442 2.68082C6.97934 2.88307 7.05147 3.12085 7.05147 3.36409C7.0511 3.69016 6.92141 4.00276 6.69084 4.23332C6.46028 4.46389 6.14768 4.59358 5.82161 4.59395Z" fill="#309884"/>
<path d="M9.27687 6.37257C9.22421 5.92795 9.02494 5.51353 8.71053 5.19477C8.39612 4.87601 7.98448 4.67107 7.54063 4.6123C7.42278 4.77378 7.28287 4.91794 7.125 5.04058H7.27941C7.69441 5.04105 8.09227 5.20611 8.38572 5.49955C8.67916 5.793 8.84422 6.19086 8.84469 6.60585V6.80325C8.97548 6.64697 9.12013 6.50282 9.27687 6.37257Z" fill="#309884"/>
<path d="M3.0263 8.61835C2.96702 8.61827 2.91019 8.59469 2.86827 8.55277C2.82635 8.51085 2.80277 8.45402 2.80269 8.39474V6.60586C2.80316 6.19086 2.96822 5.793 3.26166 5.49955C3.55511 5.20611 3.95297 5.04105 4.36796 5.04058H4.52238C4.3645 4.91794 4.2246 4.77378 4.10675 4.6123C3.62285 4.67601 3.17855 4.91325 2.85643 5.27993C2.53431 5.64661 2.35629 6.11778 2.35547 6.60586V8.39474C2.35566 8.5726 2.4264 8.74311 2.55217 8.86887C2.67793 8.99464 2.84844 9.06538 3.0263 9.06557H8.06037C8.05915 9.02837 8.05754 8.99126 8.05754 8.95377C8.05754 8.84057 8.06334 8.7287 8.07434 8.61835H3.0263Z" fill="#309884"/>
<path d="M5.82525 11.1902C4.77293 11.1905 3.74377 10.8813 2.86578 10.3012C1.98778 9.72112 1.2997 8.89571 0.887131 7.92764C0.474558 6.95957 0.355697 5.89157 0.545333 4.85648C0.734968 3.82139 1.22473 2.86489 1.9537 2.10596C2.68267 1.34703 3.61868 0.819156 4.6453 0.588007C5.67192 0.356857 6.74384 0.432629 7.72773 0.805897C8.71163 1.17917 9.56407 1.83346 10.179 2.68739C10.794 3.54132 11.1443 4.5572 11.1865 5.60868C11.2623 5.60354 11.3384 5.59998 11.4155 5.59998C11.4889 5.59998 11.5615 5.60319 11.6336 5.60784C11.5876 4.33933 11.1281 3.12065 10.3251 2.1376C9.52201 1.15455 8.41954 0.461058 7.18572 0.162852C5.95189 -0.135353 4.65439 -0.0219151 3.49103 0.485873C2.32767 0.993661 1.36227 1.86794 0.742003 2.97543C0.121738 4.08291 -0.119363 5.36285 0.0554561 6.62011C0.230276 7.87736 0.811425 9.04297 1.71031 9.93922C2.60919 10.8355 3.77649 11.4132 5.03425 11.5843C6.29202 11.7555 7.57124 11.5106 8.67691 10.8871C8.59101 10.7659 8.51326 10.6391 8.44416 10.5075C7.64429 10.9562 6.74236 11.1913 5.82525 11.1902Z" fill="#309884"/>
<path d="M11.4148 6.04688C10.8398 6.04688 10.2778 6.21736 9.79974 6.53678C9.3217 6.8562 8.94911 7.3102 8.72909 7.84137C8.50907 8.37255 8.4515 8.95704 8.56367 9.52093C8.67583 10.0848 8.95269 10.6028 9.35924 11.0093C9.76578 11.4159 10.2837 11.6927 10.8476 11.8049C11.4115 11.9171 11.996 11.8595 12.5272 11.6395C13.0584 11.4195 13.5124 11.0469 13.8318 10.5688C14.1512 10.0908 14.3217 9.52875 14.3217 8.95381C14.3208 8.18311 14.0143 7.44423 13.4693 6.89926C12.9243 6.35429 12.1855 6.04775 11.4148 6.04688ZM11.4148 11.4135C10.9283 11.4135 10.4527 11.2693 10.0482 10.999C9.64371 10.7287 9.32844 10.3446 9.14227 9.8951C8.9561 9.44565 8.90739 8.95108 9.0023 8.47394C9.09721 7.99681 9.33147 7.55853 9.67547 7.21453C10.0195 6.87053 10.4577 6.63627 10.9349 6.54136C11.412 6.44645 11.9066 6.49516 12.356 6.68133C12.8055 6.8675 13.1897 7.18277 13.4599 7.58727C13.7302 7.99177 13.8745 8.46733 13.8745 8.95381C13.8745 9.60617 13.6153 10.2318 13.154 10.6931C12.6927 11.1544 12.0671 11.4135 11.4148 11.4135Z" fill="#309884"/>
<path d="M12.7065 7.78918L10.8521 9.64358L10.1158 8.90724C10.0738 8.86544 10.017 8.842 9.95775 8.84205C9.89852 8.84211 9.84174 8.86566 9.79986 8.90754C9.75798 8.94942 9.73443 9.0062 9.73438 9.06543C9.73432 9.12465 9.75776 9.18148 9.79956 9.22344L10.694 10.1179C10.7148 10.1386 10.7394 10.1551 10.7665 10.1664C10.7937 10.1776 10.8227 10.1834 10.8521 10.1834C10.8815 10.1834 10.9105 10.1776 10.9377 10.1664C10.9648 10.1551 10.9894 10.1386 11.0102 10.1179L13.0227 8.10538C13.0644 8.06342 13.0878 8.0066 13.0878 7.94741C13.0877 7.88821 13.0641 7.83147 13.0223 7.78961C12.9804 7.74775 12.9237 7.7242 12.8645 7.72412C12.8053 7.72404 12.7485 7.74744 12.7065 7.78918Z" fill="#309884"/>
</svg>
