<svg width="28" height="28" viewBox="0 0 28 28" fill="none" xmlns="http://www.w3.org/2000/svg">
<circle cx="13.6729" cy="13.6729" r="13.6729" fill="url(#paint0_linear_3310_35)"/>
<path fill-rule="evenodd" clip-rule="evenodd" d="M19.5386 12.6904L18.807 12.5577C18.6727 12.5333 18.5709 12.4407 18.5341 12.3091C18.4247 11.9187 18.2692 11.5472 18.0743 11.2011C18.0071 11.082 18.0136 10.9444 18.0916 10.8323L18.5156 10.2204C18.6126 10.0807 18.5958 9.89603 18.4756 9.77634L17.5707 8.87144C17.4504 8.75121 17.2658 8.73497 17.1266 8.83136L16.5147 9.25539C16.4026 9.33337 16.2645 9.33933 16.1459 9.27272C15.7998 9.07777 15.4283 8.92235 15.0373 8.81295C14.9057 8.77613 14.8131 8.67432 14.7888 8.54001L14.6561 7.80839C14.6258 7.6416 14.4833 7.52246 14.3138 7.52246H13.0342C12.8641 7.52246 12.7222 7.64106 12.6919 7.80839L12.5592 8.54001C12.5349 8.67431 12.4422 8.77612 12.3107 8.81295C11.9202 8.92234 11.5487 9.07777 11.2027 9.27272C11.0835 9.33987 10.946 9.33337 10.8339 9.25539L10.2219 8.83136C10.0822 8.73443 9.89754 8.75121 9.77786 8.87144L8.87295 9.77634C8.75273 9.89656 8.73648 10.0812 8.83288 10.2204L9.25637 10.8318C9.33435 10.9439 9.3403 11.082 9.27369 11.2006C9.07875 11.5466 8.92332 11.9181 8.81393 12.3091C8.7771 12.4407 8.67529 12.5333 8.54098 12.5577L7.80937 12.6904C7.64258 12.7207 7.52344 12.8631 7.52344 13.0326V14.3123C7.52344 14.4818 7.64203 14.6242 7.80937 14.6546L8.54098 14.7872C8.67529 14.8116 8.77709 14.9042 8.81393 15.0358C8.92332 15.4263 9.07875 15.7978 9.27369 16.1438C9.34085 16.2629 9.33435 16.4005 9.25637 16.5126L8.83234 17.1245C8.7354 17.2643 8.75219 17.4489 8.87241 17.5686L9.77732 18.4735C9.89754 18.5937 10.0822 18.61 10.2214 18.5136L10.8328 18.0901C10.9449 18.0121 11.083 18.0062 11.2016 18.0728C11.5476 18.2677 11.9191 18.4231 12.3101 18.5325C12.4417 18.5694 12.5343 18.6712 12.5587 18.8055L12.6914 19.5371C12.7217 19.7039 12.8641 19.823 13.0336 19.823H14.3133C14.4828 19.823 14.6252 19.7044 14.6555 19.5371L14.7882 18.8055C14.8126 18.6712 14.9052 18.5694 15.0368 18.5325C15.3807 18.4361 15.7094 18.3046 16.0191 18.1415C16.0175 18.1107 16.017 18.0793 16.017 18.0479C16.017 16.9258 16.9268 16.016 18.0488 16.016C18.0802 16.016 18.1116 16.0171 18.143 16.0182C18.306 15.7084 18.4376 15.3797 18.534 15.0359C18.5708 14.9043 18.6726 14.8117 18.807 14.7873L19.5386 14.6546C19.7054 14.6243 19.8245 14.4819 19.8245 14.3123V13.0327C19.8245 12.8632 19.7059 12.7207 19.5386 12.6904ZM13.6737 17.0037C11.8638 17.0037 10.3427 15.5432 10.3427 13.6727C10.3427 11.8331 11.8342 10.3418 13.6737 10.3418C15.5132 10.3418 17.0047 11.8332 17.0047 13.6727C17.0047 15.5119 15.5132 17.0037 13.6737 17.0037ZM18.0493 16.2732C17.0685 16.2732 16.2741 17.0682 16.2741 18.0484C16.2741 19.0291 17.069 19.8236 18.0493 19.8236C19.03 19.8236 19.8245 19.0286 19.8245 18.0484C19.8245 17.0677 19.0295 16.2732 18.0493 16.2732ZM19.0739 17.5106L17.635 18.7783C17.5824 18.8244 17.5023 18.82 17.4552 18.768L16.8741 18.1236C16.827 18.0711 16.8313 17.9904 16.8839 17.9427C16.9364 17.8956 17.0171 17.9 17.0647 17.9525L17.5613 18.5027L18.9054 17.3184C18.9585 17.2718 19.0392 17.2767 19.0863 17.3297C19.1329 17.3828 19.128 17.4635 19.0749 17.5106L19.0739 17.5106ZM15.9703 15.7169C15.3848 16.3738 14.5552 16.7475 13.6736 16.7475C12.7921 16.7475 11.9623 16.3738 11.377 15.7169C11.7176 14.7774 12.6204 14.1016 13.6736 14.1016C14.7269 14.1016 15.6296 14.7774 15.9703 15.7169ZM12.5646 12.7505C12.5646 12.138 13.0612 11.6419 13.6731 11.6419C14.2856 11.6419 14.7816 12.1385 14.7816 12.7505C14.7816 13.3629 14.285 13.859 13.6731 13.859C13.0606 13.859 12.5646 13.3624 12.5646 12.7505Z" fill="white"/>
<defs>
<linearGradient id="paint0_linear_3310_35" x1="-18.4975" y1="-16.8312" x2="34.632" y2="53.255" gradientUnits="userSpaceOnUse">
<stop/>
<stop offset="0.132739" stop-color="#010504"/>
<stop offset="1" stop-color="#23CEA7"/>
</linearGradient>
</defs>
</svg>
