<svg width="30" height="31" viewBox="0 0 30 31" fill="none" xmlns="http://www.w3.org/2000/svg">
<path d="M25.7298 0.073113C25.5786 -0.018574 25.3917 -0.0241155 25.2361 0.0569922L17.1465 4.26855L9.05686 0.0569922C9.04326 0.0499393 9.02814 0.0469167 9.01404 0.0413752C8.99237 0.0323073 8.97122 0.0232394 8.94905 0.0176978C8.93041 0.0131639 8.91177 0.0111487 8.89313 0.00862984C8.86945 0.00560719 8.84678 0.00208076 8.8226 0.00208076C8.80346 0.00208076 8.78482 0.00510349 8.76568 0.00762236C8.7425 0.0101412 8.71983 0.01266 8.69716 0.0187053C8.67752 0.0237431 8.65837 0.0323073 8.63923 0.0398639C8.62361 0.0459092 8.60699 0.0494356 8.59187 0.0569922L0.271031 4.38895C0.104281 4.4756 0 4.64789 0 4.8358V25.4669C0 25.6432 0.0921908 25.8064 0.242316 25.8976C0.322416 25.9465 0.413095 25.9706 0.503774 25.9706C0.583371 25.9706 0.662967 25.9515 0.736518 25.9137L8.82512 21.7022L13.2614 24.0135C13.3354 24.0523 13.4155 24.0704 13.4936 24.0704C13.6755 24.0704 13.8513 23.9717 13.941 23.7994C14.0694 23.5525 13.9737 23.2483 13.7268 23.1198L9.32839 20.8281V1.33406L16.6432 5.14209V14.8614C16.6432 15.1395 16.8684 15.3652 17.147 15.3652C17.4256 15.3652 17.6507 15.1395 17.6507 14.8614V5.14209L24.9656 1.33406V15.2392C24.9656 15.5173 25.1907 15.743 25.4693 15.743C25.7479 15.743 25.9731 15.5173 25.9731 15.2392V0.50384C25.9731 0.327519 25.8809 0.164296 25.7308 0.073113H25.7298ZM1.00755 5.14209L8.32034 1.33456V20.8291L1.00755 24.6367V5.14209Z" fill="url(#paint0_linear_3131_8390)"/>
<path d="M27.7704 21.5903V21.5883C27.7678 17.8634 24.7351 14.8307 21.0087 14.8276C17.2838 14.8307 14.2511 17.8634 14.248 21.5888C14.248 22.9555 14.6561 24.2754 15.4274 25.4074C16.5402 27.0245 18.2898 28.0804 20.2183 28.3026C20.4596 28.3343 20.718 28.35 21.0097 28.35C22.2671 28.3484 23.4535 28.0044 24.4737 27.3978C25.2182 28.4341 25.981 29.3721 26.25 29.6416C26.6248 30.0195 27.1245 30.227 27.6575 30.227C28.1905 30.227 28.6903 30.019 29.063 29.6431C29.4379 29.2683 29.6449 28.7696 29.6459 28.2391C29.6459 27.7071 29.4394 27.2069 29.0661 26.8331C28.7784 26.5409 27.8107 25.7666 26.8177 25.0527C27.0893 24.5948 27.3109 24.0996 27.4731 23.5717C27.6676 22.9374 27.7678 22.2704 27.7704 21.5908V21.5903ZM21.0092 27.3419C20.7629 27.3419 20.5472 27.3293 20.3417 27.3021C18.6939 27.1122 17.2052 26.2129 16.2586 24.8376C15.6032 23.8754 15.2566 22.7515 15.2561 21.5888C15.2591 18.4185 17.84 15.8372 21.0092 15.8347C24.1795 15.8372 26.7608 18.418 26.7633 21.5878C26.7608 22.1681 26.6757 22.7364 26.5104 23.2759C26.3306 23.8613 26.0641 24.3988 25.7301 24.88C25.726 24.8855 25.7195 24.888 25.716 24.8936C25.7104 24.9011 25.7104 24.9102 25.7054 24.9182C25.3286 25.4522 24.8646 25.9112 24.3386 26.284C24.3316 26.2885 24.323 26.289 24.316 26.2935C24.3094 26.2981 24.3064 26.3051 24.3004 26.3097C23.3608 26.9636 22.2238 27.3404 21.0092 27.3419ZM28.3507 27.5424C28.5366 27.7278 28.6384 27.9746 28.6384 28.2366C28.6384 28.4986 28.5356 28.7444 28.3492 28.9308C28.1653 29.1162 27.9195 29.2185 27.6575 29.2185C27.3951 29.2185 27.1492 29.1162 26.9638 28.9293C26.7628 28.7283 26.0379 27.8462 25.2983 26.8175C25.6409 26.5364 25.9568 26.223 26.2394 25.8769C27.2258 26.5862 28.1285 27.3167 28.3507 27.5424Z" fill="url(#paint1_linear_3131_8390)"/>
<path d="M21.0116 16.9717C18.4681 16.9737 16.3965 19.0447 16.3945 21.5888C16.3945 21.8669 16.6197 22.0925 16.8978 22.0931C17.1759 22.0931 17.4016 21.8679 17.4016 21.5898C17.4031 19.6004 19.0232 17.9807 21.0121 17.9792C21.2902 17.9792 21.5154 17.7535 21.5154 17.475C21.5154 17.1964 21.2897 16.9717 21.0116 16.9717Z" fill="url(#paint2_linear_3131_8390)"/>
<defs>
<linearGradient id="paint0_linear_3131_8390" x1="12.9866" y1="0" x2="12.9866" y2="25.9706" gradientUnits="userSpaceOnUse">
<stop stop-color="#23CEA7"/>
<stop offset="1" stop-color="#126854"/>
</linearGradient>
<linearGradient id="paint1_linear_3131_8390" x1="21.947" y1="14.8276" x2="21.947" y2="30.227" gradientUnits="userSpaceOnUse">
<stop stop-color="#23CEA7"/>
<stop offset="1" stop-color="#126854"/>
</linearGradient>
<linearGradient id="paint2_linear_3131_8390" x1="18.955" y1="16.9717" x2="18.955" y2="22.0931" gradientUnits="userSpaceOnUse">
<stop stop-color="#23CEA7"/>
<stop offset="1" stop-color="#126854"/>
</linearGradient>
</defs>
</svg>
