<svg width="33" height="33" viewBox="0 0 33 33" fill="none" xmlns="http://www.w3.org/2000/svg">
<circle cx="16.2299" cy="16.2299" r="16.2299" fill="url(#paint0_linear_3310_36)"/>
<path fill-rule="evenodd" clip-rule="evenodd" d="M23.1978 15.0631L22.3293 14.9056C22.1699 14.8767 22.049 14.7668 22.0053 14.6106C21.8755 14.1471 21.691 13.7061 21.4596 13.2954C21.3799 13.1539 21.3876 12.9907 21.4801 12.8576L21.9835 12.1312C22.0985 11.9654 22.0786 11.7462 21.9359 11.6041L20.8618 10.53C20.7191 10.3873 20.4999 10.368 20.3347 10.4824L19.6083 10.9857C19.4752 11.0783 19.3113 11.0854 19.1705 11.0063C18.7597 10.7749 18.3188 10.5904 17.8547 10.4605C17.6985 10.4168 17.5885 10.296 17.5596 10.1366L17.4021 9.26812C17.3661 9.07013 17.1971 8.92871 16.9958 8.92871H15.4769C15.275 8.92871 15.1066 9.06949 15.0706 9.26812L14.9131 10.1366C14.8842 10.296 14.7743 10.4168 14.618 10.4605C14.1546 10.5904 13.7136 10.7749 13.3028 11.0063C13.1614 11.086 12.9981 11.0783 12.8651 10.9857L12.1387 10.4824C11.9728 10.3673 11.7536 10.3873 11.6116 10.53L10.5374 11.6041C10.3947 11.7468 10.3755 11.966 10.4899 12.1312L10.9926 12.857C11.0851 12.99 11.0922 13.1539 11.0131 13.2947C10.7817 13.7055 10.5972 14.1465 10.4674 14.6106C10.4237 14.7668 10.3028 14.8767 10.1434 14.9056L9.27495 15.0631C9.07697 15.0991 8.93555 15.2682 8.93555 15.4694V16.9884C8.93555 17.1896 9.07632 17.3586 9.27495 17.3946L10.1434 17.5521C10.3028 17.581 10.4237 17.691 10.4674 17.8472C10.5972 18.3106 10.7817 18.7516 11.0131 19.1624C11.0928 19.3038 11.0851 19.4671 10.9926 19.6001L10.4892 20.3265C10.3742 20.4924 10.3941 20.7116 10.5368 20.8536L11.6109 21.9278C11.7536 22.0705 11.9728 22.0898 12.138 21.9754L12.8638 21.4727C12.9969 21.3801 13.1608 21.373 13.3016 21.4521C13.7123 21.6835 14.1533 21.868 14.6174 21.9978C14.7736 22.0416 14.8835 22.1624 14.9125 22.3218L15.07 23.1903C15.1059 23.3883 15.275 23.5297 15.4762 23.5297H16.9952C17.1964 23.5297 17.3655 23.3889 17.4015 23.1903L17.559 22.3218C17.5879 22.1624 17.6978 22.0416 17.854 21.9978C18.2622 21.8834 18.6524 21.7272 19.0201 21.5337C19.0182 21.4971 19.0175 21.4598 19.0175 21.4225C19.0175 20.0906 20.0974 19.0107 21.4293 19.0107C21.4666 19.0107 21.5039 19.012 21.5412 19.0133C21.7347 18.6456 21.8909 18.2554 22.0053 17.8472C22.049 17.691 22.1698 17.5811 22.3293 17.5522L23.1977 17.3947C23.3957 17.3587 23.5371 17.1896 23.5371 16.9884V15.4694C23.5371 15.2682 23.3964 15.0991 23.1978 15.0631ZM16.236 20.1831C14.0877 20.1831 12.2821 18.4495 12.2821 16.2292C12.2821 14.0455 14.0524 12.2753 16.236 12.2753C18.4196 12.2753 20.1899 14.0456 20.1899 16.2292C20.1899 18.4123 18.4196 20.1831 16.236 20.1831ZM21.4299 19.3159C20.2657 19.3159 19.3227 20.2596 19.3227 21.4232C19.3227 22.5873 20.2663 23.5304 21.4299 23.5304C22.594 23.5304 23.5371 22.5867 23.5371 21.4232C23.5371 20.259 22.5934 19.3159 21.4299 19.3159ZM22.6461 20.7848L20.9381 22.2896C20.8757 22.3443 20.7806 22.3391 20.7247 22.2774L20.0349 21.5125C19.979 21.4501 19.9842 21.3543 20.0465 21.2978C20.1089 21.2418 20.2046 21.247 20.2612 21.3093L20.8507 21.9624L22.4461 20.5566C22.5091 20.5013 22.6049 20.5071 22.6608 20.5701C22.7161 20.6331 22.7103 20.7289 22.6473 20.7848L22.6461 20.7848ZM18.962 18.6557C18.2672 19.4354 17.2824 19.879 16.2359 19.879C15.1895 19.879 14.2046 19.4354 13.5098 18.6557C13.9141 17.5404 14.9857 16.7382 16.2359 16.7382C17.4861 16.7382 18.5577 17.5405 18.962 18.6557ZM14.9194 15.1344C14.9194 14.4074 15.5089 13.8186 16.2353 13.8186C16.9623 13.8186 17.5511 14.408 17.5511 15.1344C17.5511 15.8615 16.9617 16.4503 16.2353 16.4503C15.5083 16.4503 14.9194 15.8608 14.9194 15.1344Z" fill="white"/>
<defs>
<linearGradient id="paint0_linear_3310_36" x1="-21.9568" y1="-19.9789" x2="41.1087" y2="63.2145" gradientUnits="userSpaceOnUse">
<stop/>
<stop offset="0.132739" stop-color="#010504"/>
<stop offset="1" stop-color="#23CEA7"/>
</linearGradient>
</defs>
</svg>
