<svg width="297" height="17" viewBox="0 0 297 17" fill="none" xmlns="http://www.w3.org/2000/svg">
<path d="M266.505 9.12822C266.197 8.82048 266.043 8.4468 266.043 8.00718V4.84191C266.043 4.40229 266.197 4.02861 266.505 3.72088C266.813 3.41314 267.186 3.25928 267.626 3.25928C268.066 3.25928 268.439 3.41314 268.747 3.72088C269.055 4.02861 269.209 4.40229 269.209 4.84191V8.00718C269.209 8.4468 269.055 8.82048 268.747 9.12822C268.439 9.43595 268.066 9.58982 267.626 9.58982C267.186 9.58982 266.813 9.43595 266.505 9.12822ZM267.099 12.7551V11.6604C266.29 11.5461 265.597 11.2032 265.021 10.6317C264.445 10.0602 264.096 9.36561 263.973 8.54792C263.955 8.39845 263.995 8.27096 264.092 8.16545C264.188 8.05994 264.311 8.00718 264.461 8.00718C264.61 8.00718 264.736 8.05774 264.837 8.15885C264.938 8.25997 265.006 8.38526 265.041 8.53473C265.164 9.1502 265.47 9.65576 265.958 10.0514C266.446 10.4471 267.002 10.6449 267.626 10.6449C268.259 10.6449 268.817 10.4449 269.301 10.0448C269.785 9.64477 270.088 9.14141 270.211 8.53473C270.246 8.38526 270.314 8.25997 270.415 8.15885C270.517 8.05774 270.642 8.00718 270.791 8.00718C270.941 8.00718 271.064 8.05994 271.161 8.16545C271.257 8.27096 271.297 8.39845 271.279 8.54792C271.156 9.34803 270.809 10.0382 270.237 10.6185C269.666 11.1988 268.971 11.5461 268.154 11.6604V12.7551C268.154 12.9046 268.103 13.0299 268.002 13.131C267.901 13.2321 267.776 13.2826 267.626 13.2826C267.477 13.2826 267.351 13.2321 267.25 13.131C267.149 13.0299 267.099 12.9046 267.099 12.7551ZM268.002 8.38306C268.103 8.28195 268.154 8.15665 268.154 8.00718V4.84191C268.154 4.69244 268.103 4.56715 268.002 4.46604C267.901 4.36492 267.776 4.31437 267.626 4.31437C267.477 4.31437 267.351 4.36492 267.25 4.46604C267.149 4.56715 267.099 4.69244 267.099 4.84191V8.00718C267.099 8.15665 267.149 8.28195 267.25 8.38306C267.351 8.48417 267.477 8.53473 267.626 8.53473C267.776 8.53473 267.901 8.48417 268.002 8.38306Z" fill="#717171"/>
<circle cx="8.27168" cy="8.27168" r="8.27168" fill="#767676"/>
<path d="M6.30557 10.2483C5.75847 10.2483 5.29213 10.0555 4.90653 9.66994C4.52093 9.28434 4.32812 8.81799 4.32812 8.2709C4.32812 7.72381 4.52093 7.25746 4.90653 6.87186C5.29213 6.48626 5.75847 6.29346 6.30557 6.29346H7.49203C7.60409 6.29346 7.69801 6.33136 7.77382 6.40716C7.84962 6.48296 7.88752 6.57689 7.88752 6.68895C7.88752 6.801 7.84962 6.89493 7.77382 6.97073C7.69801 7.04653 7.60409 7.08443 7.49203 7.08443H6.30557C5.97599 7.08443 5.69586 7.19978 5.46515 7.43049C5.23445 7.66119 5.1191 7.94132 5.1191 8.2709C5.1191 8.60047 5.23445 8.88061 5.46515 9.11131C5.69586 9.34201 5.97599 9.45736 6.30557 9.45736H7.49203C7.60409 9.45736 7.69801 9.49526 7.77382 9.57107C7.84962 9.64687 7.88752 9.7408 7.88752 9.85285C7.88752 9.96491 7.84962 10.0588 7.77382 10.1346C7.69801 10.2104 7.60409 10.2483 7.49203 10.2483H6.30557ZM7.09654 8.66639C6.98449 8.66639 6.89056 8.62849 6.81476 8.55268C6.73896 8.47688 6.70105 8.38295 6.70105 8.2709C6.70105 8.15884 6.73896 8.06491 6.81476 7.98911C6.89056 7.91331 6.98449 7.87541 7.09654 7.87541H9.46947C9.58153 7.87541 9.67546 7.91331 9.75126 7.98911C9.82706 8.06491 9.86496 8.15884 9.86496 8.2709C9.86496 8.38295 9.82706 8.47688 9.75126 8.55268C9.67546 8.62849 9.58153 8.66639 9.46947 8.66639H7.09654ZM9.07398 10.2483C8.96193 10.2483 8.868 10.2104 8.7922 10.1346C8.7164 10.0588 8.6785 9.96491 8.6785 9.85285C8.6785 9.7408 8.7164 9.64687 8.7922 9.57107C8.868 9.49526 8.96193 9.45736 9.07398 9.45736H10.2604C10.59 9.45736 10.8702 9.34201 11.1009 9.11131C11.3316 8.88061 11.4469 8.60047 11.4469 8.2709C11.4469 7.94132 11.3316 7.66119 11.1009 7.43049C10.8702 7.19978 10.59 7.08443 10.2604 7.08443H9.07398C8.96193 7.08443 8.868 7.04653 8.7922 6.97073C8.7164 6.89493 8.6785 6.801 8.6785 6.68895C8.6785 6.57689 8.7164 6.48296 8.7922 6.40716C8.868 6.33136 8.96193 6.29346 9.07398 6.29346H10.2604C10.8075 6.29346 11.2739 6.48626 11.6595 6.87186C12.0451 7.25746 12.2379 7.72381 12.2379 8.2709C12.2379 8.81799 12.0451 9.28434 11.6595 9.66994C11.2739 10.0555 10.8075 10.2483 10.2604 10.2483H9.07398Z" fill="white"/>
<circle cx="288.307" cy="8.27176" r="8.13699" fill="#23C5A0"/>
<path d="M293.016 8.69984L285.881 11.7115C285.727 11.7733 285.58 11.7598 285.441 11.671C285.302 11.5822 285.232 11.4528 285.232 11.2829V5.25957C285.232 5.08968 285.302 4.96033 285.441 4.87153C285.58 4.78272 285.727 4.76921 285.881 4.83099L293.016 7.84267C293.21 7.92761 293.306 8.07048 293.306 8.27125C293.306 8.47203 293.21 8.6149 293.016 8.69984ZM286.159 10.5879L291.65 8.27125L286.159 5.95458V7.57625L288.939 8.27125L286.159 8.96626V10.5879Z" fill="white"/>
</svg>
