<svg width="17" height="17" viewBox="0 0 17 17" fill="none" xmlns="http://www.w3.org/2000/svg">
<circle cx="8.13699" cy="8.13699" r="8.13699" fill="#23C5A0"/>
<path d="M12.8465 8.56507L5.71117 11.5768C5.55672 11.6385 5.41 11.625 5.271 11.5362C5.132 11.4474 5.0625 11.3181 5.0625 11.1482V5.12481C5.0625 4.95492 5.132 4.82557 5.271 4.73676C5.41 4.64796 5.55672 4.63444 5.71117 4.69622L12.8465 7.7079C13.0396 7.79285 13.1361 7.93571 13.1361 8.13649C13.1361 8.33727 13.0396 8.48013 12.8465 8.56507ZM5.98917 10.4532L11.4797 8.13649L5.98917 5.81981V7.44149L8.76919 8.13649L5.98917 8.83149V10.4532Z" fill="white"/>
</svg>
